<!DOCTYPE svg PUBLIC "-//W3C//DTD SVG 20010904//EN" "http://www.w3.org/TR/2001/REC-SVG-20010904/DTD/svg10.dtd">
<svg version="1.0" xmlns="http://www.w3.org/2000/svg" width="225px" height="225px" viewBox="0 0 2250 2250" preserveAspectRatio="xMidYMid meet">
<g id="layer101" fill="#ffffff" stroke="none">
 <path d="M322 2108 c-9 -9 -12 -125 -12 -462 l1 -451 216 -180 c119 -99 304 -253 410 -343 107 -90 198 -162 203 -160 4 2 181 158 394 347 l386 343 0 439 c0 426 -1 440 -20 459 -19 19 -33 20 -305 20 l-284 0 -3 -251 c-4 -314 13 -289 -199 -289 -206 0 -189 -25 -189 290 l0 250 -293 0 c-215 0 -296 -3 -305 -12z"/>
 <path d="M30 1163 l-30 -28 571 -502 571 -503 37 32 c20 17 269 243 554 501 493 447 517 470 501 488 -40 45 -122 45 -195 0 -17 -10 -215 -184 -442 -387 -226 -203 -421 -377 -434 -387 l-22 -18 -468 396 c-258 218 -485 405 -505 416 -54 28 -101 25 -138 -8z"/>
 <path d="M1865 710 l-105 -91 0 -129 0 -130 110 0 110 0 0 220 c0 121 -2 220 -5 220 -2 0 -52 -41 -110 -90z"/>
 </g>

</svg>