<!DOCTYPE svg PUBLIC "-//W3C//DTD SVG 20010904//EN" "http://www.w3.org/TR/2001/REC-SVG-20010904/DTD/svg10.dtd">
<svg version="1.0" xmlns="http://www.w3.org/2000/svg" width="24px" height="24px" viewBox="0 0 240 240" preserveAspectRatio="xMidYMid meet">
<g id="layer101" fill="#ffffff" stroke="none">
 <path d="M109 188 c-43 -24 -79 -83 -79 -127 0 -28 3 -31 29 -31 23 0 30 5 34 27 3 15 0 35 -6 45 -10 14 -7 22 11 40 18 18 26 21 40 11 10 -6 30 -9 45 -6 22 4 27 11 27 34 0 26 -3 29 -32 29 -18 0 -49 -10 -69 -22z"/>
 </g>

</svg>