<!DOCTYPE svg PUBLIC "-//W3C//DTD SVG 20010904//EN" "http://www.w3.org/TR/2001/REC-SVG-20010904/DTD/svg10.dtd">
<svg version="1.0" xmlns="http://www.w3.org/2000/svg" width="980px" height="908px" viewBox="0 0 9800 9080" preserveAspectRatio="xMidYMid meet">
<g id="layer101" fill="#ffffff" stroke="none">
 <path d="M589 9050 c-279 -69 -489 -279 -565 -565 -18 -68 -19 -185 -19 -3380 0 -3174 1 -3313 18 -3388 10 -43 38 -117 62 -165 97 -193 247 -321 460 -393 l70 -24 1195 -5 1195 -5 5 -300 c5 -279 7 -304 27 -359 68 -179 215 -323 407 -397 157 -61 116 -59 1419 -59 787 0 1214 4 1257 11 277 44 497 219 586 464 16 43 19 94 24 345 l5 295 1225 5 1225 5 70 24 c213 72 363 200 460 393 24 48 52 122 62 165 17 75 18 214 18 3388 0 3206 -1 3312 -19 3380 -79 296 -300 510 -588 569 -70 14 -477 16 -4300 15 -4086 0 -4225 -1 -4299 -19z m8351 -2175 l0 -1345 -1144 0 -1144 0 -5 178 c-6 200 -17 253 -78 378 -98 200 -283 348 -503 404 -77 19 -113 20 -1175 20 -1048 0 -1100 -1 -1176 -19 -154 -38 -272 -107 -385 -228 -53 -57 -83 -101 -120 -177 -64 -131 -80 -212 -80 -406 l0 -150 -1135 0 -1135 0 0 1345 0 1345 4040 0 4040 0 0 -1345z m-3145 -1775 l0 -555 -907 -3 -908 -2 0 560 0 560 908 -2 907 -3 0 -555z m-2665 -587 c0 -124 5 -176 20 -243 54 -224 198 -404 405 -505 171 -84 88 -79 1275 -83 1117 -3 1156 -2 1299 43 191 61 365 218 451 409 51 111 61 169 67 359 l5 177 1144 0 1144 0 0 -1345 0 -1345 -4040 0 -4040 0 0 1345 0 1345 1135 0 1135 0 0 -157z m2748 -3520 l3 -133 -1011 0 -1010 0 0 135 0 135 1008 -2 1007 -3 3 -132z"/>
 </g>

</svg>