<!DOCTYPE svg PUBLIC "-//W3C//DTD SVG 20010904//EN" "http://www.w3.org/TR/2001/REC-SVG-20010904/DTD/svg10.dtd">
<svg version="1.0" xmlns="http://www.w3.org/2000/svg" width="100px" height="100px" viewBox="0 0 1000 1000" preserveAspectRatio="xMidYMid meet">
<g id="layer101" fill="#ffffff" stroke="none">
 <path d="M205 923 c-63 -16 -95 -67 -95 -151 0 -131 37 -236 98 -277 49 -34 87 -31 166 10 99 51 183 48 278 -12 125 -77 238 50 238 267 0 88 -19 128 -73 153 -30 15 -72 17 -314 16 -153 -1 -287 -4 -298 -6z"/>
 <path d="M420 484 c-146 -63 -176 -262 -55 -361 153 -127 380 8 344 204 -25 130 -170 209 -289 157z"/>
 </g>

</svg>