<!DOCTYPE svg PUBLIC "-//W3C//DTD SVG 20010904//EN" "http://www.w3.org/TR/2001/REC-SVG-20010904/DTD/svg10.dtd">
<svg version="1.0" xmlns="http://www.w3.org/2000/svg" width="225px" height="225px" viewBox="0 0 2250 2250" preserveAspectRatio="xMidYMid meet">
<g id="layer101" fill="#ffffff" stroke="none">
 <path d="M0 1125 l0 -1125 1125 0 1125 0 0 1125 0 1125 -1125 0 -1125 0 0 -1125z m873 750 c15 -31 21 -35 55 -35 34 0 40 4 55 36 16 33 20 35 50 29 46 -10 47 -12 47 -56 0 -33 5 -42 32 -59 31 -19 32 -19 59 1 35 25 40 24 72 -8 26 -28 26 -28 7 -53 -24 -31 -25 -49 -4 -78 11 -16 25 -22 54 -22 43 0 45 -2 54 -46 6 -28 4 -33 -28 -52 -31 -18 -36 -27 -36 -57 0 -31 5 -38 36 -52 33 -16 35 -20 29 -53 -10 -50 -13 -53 -56 -46 -35 6 -40 4 -54 -23 -19 -39 -19 -51 5 -81 19 -25 19 -25 -7 -52 -32 -33 -37 -34 -73 -8 -27 19 -29 19 -59 3 -27 -16 -31 -24 -31 -60 0 -40 -2 -43 -37 -52 -43 -12 -47 -10 -63 29 -11 26 -18 30 -51 30 -33 0 -41 -4 -55 -32 -9 -18 -18 -34 -19 -36 -2 -2 -21 2 -43 7 -39 11 -40 12 -35 49 5 35 2 41 -28 60 l-33 20 -37 -21 -38 -22 -25 24 c-31 30 -32 35 -5 72 20 29 20 30 2 62 -18 29 -24 32 -60 29 -40 -3 -40 -2 -51 38 -10 41 -10 41 24 57 31 15 34 21 34 58 0 38 -3 43 -36 58 -25 13 -34 22 -30 33 3 9 9 27 12 40 5 21 12 24 48 24 35 0 44 4 59 29 17 28 16 31 -4 66 l-22 37 27 26 27 27 37 -22 38 -21 33 20 c30 19 33 25 28 60 -5 36 -3 38 26 47 49 14 52 13 70 -24z m760 -573 c14 -52 20 -59 50 -69 32 -9 37 -8 73 23 45 39 60 41 93 13 l24 -20 -19 -55 c-17 -51 -17 -56 -2 -82 15 -24 23 -27 79 -28 l63 -1 12 -37 13 -36 -49 -33 c-44 -28 -50 -36 -50 -68 0 -31 6 -40 48 -69 26 -18 48 -34 49 -35 1 0 -3 -18 -9 -38 l-11 -37 -63 0 c-56 0 -64 -3 -82 -26 -19 -26 -19 -28 0 -76 23 -62 23 -63 -12 -88 l-31 -22 -46 36 c-36 28 -52 34 -72 30 -37 -9 -43 -17 -61 -77 -15 -51 -16 -52 -55 -52 -39 0 -40 1 -53 50 -17 60 -25 71 -58 79 -19 5 -37 -2 -75 -29 l-49 -37 -30 22 c-16 12 -30 24 -30 28 0 4 9 30 20 59 19 51 19 51 -1 77 -17 21 -29 26 -81 28 -60 3 -62 4 -73 38 -12 35 -12 35 37 68 43 29 48 36 48 70 0 33 -5 40 -50 69 l-49 33 13 37 13 37 59 -3 c55 -2 61 0 81 27 l22 30 -20 51 c-10 28 -19 55 -19 60 0 4 15 16 34 26 l34 19 44 -36 c41 -33 45 -34 78 -23 31 10 36 18 49 68 l15 57 41 0 42 0 16 -58z m-1068 -242 c20 -40 30 -50 50 -50 20 0 30 10 50 51 19 36 31 49 41 45 9 -3 20 -6 25 -6 5 0 9 -27 9 -60 0 -50 3 -61 21 -70 17 -10 28 -6 67 19 46 30 47 30 66 11 19 -18 19 -19 -12 -66 -41 -64 -30 -84 49 -84 43 0 58 -4 63 -16 12 -31 5 -41 -44 -64 -39 -18 -50 -29 -50 -47 0 -17 12 -29 50 -48 51 -26 55 -31 44 -59 -5 -12 -21 -16 -65 -16 -54 0 -59 -2 -65 -25 -5 -18 1 -37 21 -66 44 -67 14 -97 -54 -55 -68 44 -88 32 -93 -54 -3 -48 -6 -55 -25 -58 -18 -3 -27 7 -47 46 -22 44 -28 49 -51 44 -19 -3 -33 -17 -48 -48 -21 -44 -31 -50 -61 -38 -12 5 -16 21 -16 65 0 54 -2 59 -24 65 -17 4 -37 -3 -66 -22 -40 -27 -41 -27 -60 -8 -19 19 -19 20 11 66 27 41 29 49 17 67 -11 17 -23 21 -70 21 -32 0 -58 4 -58 9 0 5 -2 16 -5 23 -4 10 11 24 45 42 68 37 68 61 -1 99 -35 20 -49 34 -45 44 3 8 6 19 6 24 0 5 27 9 60 9 49 0 61 3 70 20 9 17 5 28 -21 66 -31 45 -31 46 -12 65 18 19 20 19 66 -11 38 -24 52 -28 67 -20 16 9 20 21 20 70 0 58 3 63 42 69 4 0 19 -21 33 -49z"/>
 <path d="M834 1691 c-79 -36 -144 -132 -144 -213 0 -133 130 -250 261 -235 128 15 209 110 209 243 0 158 -180 271 -326 205z"/>
 <path d="M1504 1062 c-165 -78 -111 -324 71 -324 125 0 207 122 157 234 -40 92 -140 131 -228 90z"/>
 <path d="M590 813 c-103 -38 -75 -183 35 -183 34 0 85 50 85 84 0 40 -20 74 -55 91 -35 16 -41 17 -65 8z"/>
 </g>

</svg>