<!DOCTYPE svg PUBLIC "-//W3C//DTD SVG 20010904//EN" "http://www.w3.org/TR/2001/REC-SVG-20010904/DTD/svg10.dtd">
<svg version="1.0" xmlns="http://www.w3.org/2000/svg" width="225px" height="225px" viewBox="0 0 2250 2250" preserveAspectRatio="xMidYMid meet">
<g id="layer101" fill="#ffffff" stroke="none">
<path d="M1602 2018 c-6 -6 -12 -32 -12 -58 0 -43 -2 -46 -44 -68 -42 -22 -45 -23 -82 -7 -21 9 -49 13 -61 10 -29 -7 -39 -41 -19 -68 46 -63 45 -60 34 -108 -10 -41 -15 -47 -59 -67 -38 -17 -49 -26 -49 -45 0 -31 18 -47 51 -47 46 0 73 -16 93 -55 19 -35 19 -38 3 -82 -12 -31 -14 -50 -7 -63 17 -31 38 -30 84 5 24 18 47 31 50 28 3 -4 23 -9 43 -12 33 -6 41 -12 60 -52 38 -81 86 -74 97 13 6 50 10 55 49 76 41 21 45 22 75 7 81 -41 121 12 63 82 -20 25 -27 41 -21 47 6 6 10 21 10 35 0 34 10 47 40 56 41 13 70 36 70 56 0 24 -37 49 -75 49 -37 0 -45 6 -72 49 -20 32 -20 35 -5 83 27 84 -12 112 -80 58 -35 -28 -43 -31 -64 -21 -14 6 -34 11 -44 11 -13 0 -27 15 -42 48 -24 50 -60 66 -86 40z m65 -68 c16 -37 28 -50 43 -50 11 0 37 -7 56 -15 35 -15 36 -14 80 22 25 19 47 33 51 29 4 -3 -2 -28 -13 -54 l-20 -47 28 -45 c15 -24 28 -50 28 -57 0 -9 16 -13 54 -13 73 0 80 -16 17 -42 -47 -20 -51 -25 -60 -67 -5 -25 -13 -53 -16 -62 -4 -11 5 -30 24 -52 51 -57 39 -70 -34 -38 l-40 18 -39 -29 c-21 -15 -44 -28 -51 -28 -7 0 -15 -21 -18 -52 -4 -28 -10 -55 -15 -60 -4 -4 -18 14 -30 41 -19 45 -26 51 -64 61 -24 6 -51 13 -61 16 -10 3 -33 -7 -56 -25 -35 -28 -61 -39 -61 -26 0 3 11 27 24 55 23 47 23 50 6 65 -10 9 -26 32 -34 50 -15 30 -22 34 -71 40 -30 4 -55 12 -55 17 0 5 23 18 50 30 37 15 50 26 50 42 1 11 7 39 15 60 14 39 13 40 -20 79 -19 22 -32 44 -29 48 3 5 28 -1 56 -12 45 -18 52 -18 67 -5 9 8 33 22 54 31 35 15 37 17 37 63 0 46 5 62 19 62 3 0 16 -23 28 -50z"/>
<path d="M1609 1742 c-26 -23 -33 -38 -36 -79 -5 -47 -3 -53 30 -89 31 -35 39 -38 87 -38 46 0 56 4 81 32 39 43 46 92 22 139 -24 46 -54 63 -110 63 -33 0 -50 -7 -74 -28z m138 -24 c45 -51 33 -123 -25 -147 -77 -32 -152 55 -111 130 22 42 104 52 136 17z"/>
<path d="M711 1986 c-7 -8 -17 -42 -23 -75 -8 -40 -16 -61 -25 -61 -8 0 -41 -13 -73 -29 l-59 -29 -53 34 c-29 18 -62 34 -74 34 -27 0 -84 -60 -84 -89 0 -13 16 -46 35 -72 l35 -49 -23 -48 c-13 -26 -27 -59 -30 -73 -6 -22 -14 -27 -68 -37 -83 -15 -91 -23 -87 -90 3 -62 8 -66 88 -82 l55 -11 32 -76 32 -75 -35 -49 c-19 -27 -34 -60 -34 -73 0 -27 60 -86 87 -86 9 0 40 16 68 35 l51 35 59 -24 c33 -13 67 -27 76 -29 12 -4 19 -23 24 -62 4 -35 14 -64 26 -76 33 -33 139 -21 139 16 0 8 5 36 11 64 9 45 14 51 52 66 23 9 57 24 74 32 32 15 34 14 87 -21 30 -20 61 -36 68 -36 20 0 88 73 88 94 0 10 -16 41 -36 68 l-35 50 22 46 c12 26 25 58 29 72 5 21 17 28 75 42 37 9 72 22 76 30 14 21 10 104 -5 117 -7 6 -42 17 -77 24 -58 12 -64 15 -70 42 -3 17 -16 50 -28 74 l-22 43 35 54 c20 29 36 62 36 72 0 26 -61 82 -90 82 -14 0 -45 -14 -70 -30 -52 -35 -52 -35 -93 -16 -18 8 -48 19 -68 25 -33 11 -36 15 -48 74 -7 34 -17 68 -23 75 -15 17 -112 16 -127 -2z m118 -87 c9 -49 18 -72 30 -75 9 -3 39 -14 66 -26 28 -11 62 -25 76 -31 23 -9 33 -6 77 26 27 20 54 37 59 37 5 0 21 -13 36 -28 l27 -28 -40 -63 -40 -62 23 -42 c13 -23 30 -61 37 -84 14 -44 18 -47 85 -58 73 -11 75 -13 75 -56 0 -45 -13 -53 -98 -65 -47 -6 -48 -7 -61 -53 -8 -25 -24 -65 -37 -88 l-24 -42 42 -61 42 -60 -31 -31 -31 -31 -31 21 c-17 11 -44 30 -60 41 l-29 19 -59 -29 c-32 -16 -67 -30 -78 -30 -33 0 -42 -12 -49 -64 -13 -85 -20 -96 -65 -96 l-40 0 -11 58 c-17 88 -18 88 -63 102 -23 8 -61 24 -85 37 l-43 23 -61 -41 -60 -41 -30 30 c-34 33 -32 43 23 113 l28 36 -29 59 c-15 32 -32 72 -37 89 -8 27 -14 31 -81 44 l-72 13 0 44 c0 47 -3 45 91 64 53 10 57 13 63 43 4 18 19 56 35 86 l28 55 -39 55 c-21 30 -38 59 -38 65 0 12 40 56 52 56 5 0 32 -16 61 -35 60 -40 69 -42 111 -16 17 10 53 24 79 32 38 11 49 19 53 39 26 124 24 120 69 120 l42 0 12 -71z"/>
<path d="M675 1707 c-60 -24 -93 -47 -137 -96 -99 -110 -103 -280 -8 -400 28 -35 58 -59 107 -83 59 -29 77 -33 143 -32 90 1 150 26 216 92 54 53 72 90 86 172 10 59 9 73 -11 139 -41 135 -158 222 -297 220 -38 0 -82 -6 -99 -12z m222 -45 c180 -92 213 -331 64 -465 -59 -53 -159 -82 -237 -68 -31 6 -69 18 -82 27 -148 97 -192 253 -110 391 34 58 103 115 162 133 50 15 156 6 203 -18z"/>
<path d="M734 1539 c-18 -5 -46 -25 -63 -44 -25 -29 -31 -44 -31 -83 0 -88 56 -142 146 -142 41 0 51 5 85 39 36 35 39 43 39 93 0 45 -5 59 -30 90 -26 31 -84 61 -110 57 -3 0 -19 -5 -36 -10z m101 -45 c25 -16 45 -61 45 -101 0 -37 -60 -93 -100 -93 -66 0 -109 43 -110 108 0 60 41 102 100 102 22 0 51 -7 65 -16z"/>
<path d="M1608 1213 c-8 -10 -22 -36 -32 -58 -28 -65 -31 -69 -67 -77 -31 -6 -38 -3 -84 43 -28 27 -60 49 -71 49 -11 0 -38 -15 -59 -34 l-39 -33 28 -72 c26 -67 27 -73 12 -90 -9 -10 -16 -23 -16 -29 0 -8 -24 -12 -74 -12 -48 0 -77 -5 -84 -13 -13 -16 -29 -86 -25 -108 2 -9 32 -29 66 -44 76 -35 67 -27 77 -68 7 -33 4 -38 -41 -83 -27 -27 -49 -56 -49 -65 0 -23 57 -99 75 -99 9 0 43 11 76 25 l61 24 29 -21 c27 -20 29 -26 29 -90 0 -60 3 -69 24 -83 32 -21 93 -30 109 -16 8 6 25 38 38 70 23 59 37 71 82 71 10 0 40 -20 66 -45 56 -52 79 -55 127 -17 40 32 41 38 12 118 l-22 61 23 31 c21 31 25 32 92 32 l70 0 15 36 c8 20 14 50 12 67 -3 33 -10 38 -93 72 -37 16 -44 23 -49 54 -5 32 -1 40 39 81 26 27 45 55 45 68 0 28 -39 90 -62 97 -9 3 -44 -5 -78 -19 l-61 -25 -36 21 c-35 21 -35 22 -30 76 8 80 -2 98 -63 111 -28 6 -52 11 -54 11 -2 0 -10 -8 -18 -17z m102 -106 l5 -77 44 -29 43 -29 52 21 c28 11 55 24 61 29 15 14 22 9 46 -28 l22 -36 -52 -52 -51 -52 12 -51 c11 -47 16 -53 58 -71 25 -11 56 -23 69 -27 20 -6 22 -12 17 -37 -3 -17 -6 -37 -6 -44 0 -11 -19 -14 -78 -14 l-78 0 -27 -41 c-15 -22 -27 -45 -27 -49 0 -5 12 -37 27 -71 l27 -62 -30 -23 c-16 -13 -33 -24 -38 -24 -5 0 -31 22 -58 49 l-49 50 -54 -12 c-44 -9 -56 -16 -63 -37 -5 -14 -18 -44 -28 -68 -18 -40 -20 -42 -54 -36 -19 4 -38 9 -42 11 -5 2 -8 37 -8 77 l0 72 -41 27 c-22 15 -45 27 -50 27 -4 0 -34 -11 -65 -25 -31 -14 -60 -25 -64 -25 -5 0 -18 16 -31 36 l-22 36 52 52 c54 55 56 61 41 117 -10 36 -18 42 -97 75 -45 19 -51 32 -33 78 9 24 14 26 79 26 l70 0 30 45 30 45 -29 66 c-17 36 -30 67 -30 69 0 2 16 13 36 26 l36 22 52 -52 52 -52 53 12 c57 12 52 7 101 125 7 18 14 20 47 15 l38 -6 5 -78z"/>
<path d="M1472 958 c-78 -38 -131 -127 -132 -225 0 -61 12 -93 57 -150 85 -107 264 -113 360 -12 95 101 87 263 -18 352 -69 60 -185 75 -267 35z m209 -31 c72 -38 127 -144 113 -218 -22 -113 -103 -179 -221 -179 -54 0 -82 11 -128 51 -71 62 -92 157 -56 242 47 109 187 159 292 104z"/>
<path d="M1520 858 c-129 -65 -78 -258 68 -258 37 0 48 6 87 45 41 40 45 49 45 91 0 54 -31 104 -80 129 -40 21 -68 19 -120 -7z m106 -23 c74 -31 81 -143 11 -185 -39 -24 -70 -25 -107 -3 -75 44 -68 150 11 190 31 16 42 16 85 -2z"/>
</g>
<g id="layer102" fill="#ffffff" stroke="none">
<path d="M1600 2015 c-6 -7 -10 -32 -8 -56 1 -27 -2 -44 -10 -47 -7 -2 -18 -10 -26 -17 -7 -8 -16 -11 -20 -8 -3 4 -6 1 -6 -5 0 -7 -14 -11 -35 -9 -19 1 -35 6 -35 10 0 5 -4 5 -10 2 -5 -3 -10 -1 -10 4 0 17 -37 13 -54 -5 -22 -21 -20 -41 7 -68 29 -31 50 -66 37 -66 -5 0 -7 -6 -4 -14 3 -8 1 -17 -5 -21 -6 -3 -11 -15 -11 -26 0 -10 -5 -19 -11 -19 -6 0 -17 -7 -26 -15 -8 -8 -19 -13 -24 -10 -5 4 -9 1 -9 -4 0 -6 -3 -10 -7 -9 -13 5 -16 -10 -9 -42 3 -19 10 -28 19 -25 20 8 90 -20 101 -41 6 -10 14 -21 17 -24 11 -10 17 -50 8 -56 -5 -3 -7 -10 -4 -15 4 -5 1 -9 -6 -9 -7 0 -9 -3 -6 -7 4 -3 2 -12 -5 -20 -8 -10 -6 -19 12 -38 21 -22 25 -23 40 -10 9 8 22 15 28 15 6 0 16 9 22 19 10 19 50 25 50 8 0 -5 7 -7 15 -3 30 11 71 -18 66 -46 0 -5 4 -8 10 -8 5 0 8 -4 4 -9 -5 -9 32 -51 44 -51 14 1 36 20 37 32 0 7 4 32 8 55 7 35 14 44 52 63 35 19 46 21 58 11 8 -7 20 -10 26 -6 5 3 10 2 10 -4 0 -5 15 -8 32 -7 29 2 33 6 34 34 1 17 -5 33 -11 36 -19 7 -45 65 -34 72 6 3 8 13 5 21 -7 18 22 76 34 68 6 -4 10 -1 10 5 0 6 4 8 10 5 15 -9 61 25 58 44 -5 26 -46 54 -72 47 -22 -5 -38 5 -74 48 -15 18 -23 76 -11 76 5 0 8 3 8 8 -1 4 0 10 1 15 7 22 4 54 -7 65 -14 14 -43 16 -43 2 0 -5 -5 -10 -11 -10 -7 0 -22 -11 -34 -24 -22 -24 -65 -27 -65 -5 0 5 -11 9 -24 9 -25 0 -60 36 -50 52 3 4 0 8 -6 8 -6 0 -9 4 -5 9 3 5 -5 13 -17 17 -38 13 -47 13 -58 -1z m54 -26 c-3 -6 2 -19 13 -31 10 -11 17 -22 16 -24 -11 -17 37 -40 75 -35 6 1 12 -2 12 -7 0 -21 33 -22 47 -2 8 11 21 20 29 20 8 0 17 7 20 15 4 8 12 15 19 15 7 0 15 -7 19 -15 3 -8 1 -15 -4 -15 -6 0 -9 -3 -8 -7 1 -5 -3 -18 -10 -30 -7 -13 -9 -23 -5 -23 4 0 1 -5 -7 -10 -10 -6 -11 -10 -2 -10 6 0 12 -7 12 -15 0 -9 7 -18 15 -21 8 -4 13 -10 10 -14 -3 -5 1 -14 8 -22 8 -7 12 -19 9 -27 -4 -11 3 -13 32 -8 47 8 88 -7 80 -28 -3 -8 -10 -12 -15 -9 -5 3 -9 0 -9 -6 0 -6 -4 -9 -9 -5 -5 3 -12 1 -16 -5 -4 -6 -11 -8 -16 -5 -5 4 -9 1 -9 -5 0 -6 -4 -8 -10 -5 -5 3 -11 -2 -11 -12 -2 -19 -5 -43 -8 -55 0 -5 0 -10 2 -11 1 -2 -3 -10 -9 -18 -15 -18 -2 -54 25 -69 20 -10 28 -40 15 -53 -3 -3 -27 5 -52 18 -41 21 -49 22 -58 10 -6 -8 -16 -15 -23 -15 -6 0 -11 -4 -11 -9 0 -7 -35 -24 -50 -23 -5 0 -8 -20 -13 -78 -1 -14 -6 -28 -11 -32 -11 -7 -36 14 -29 25 3 5 -3 17 -13 28 -9 10 -13 19 -9 19 5 0 0 6 -10 14 -10 7 -27 11 -37 8 -10 -2 -18 1 -18 8 0 7 -7 10 -15 7 -8 -4 -17 -2 -20 3 -7 11 -85 -27 -85 -41 0 -5 -9 -9 -20 -9 -21 0 -28 24 -10 35 6 4 8 11 5 16 -4 5 -3 9 2 9 4 0 13 12 20 25 10 23 9 27 -13 41 -13 9 -22 20 -19 24 3 4 -2 13 -10 20 -8 7 -12 16 -10 21 7 10 -68 31 -87 24 -8 -3 -20 0 -26 8 -9 11 -6 17 16 27 15 7 30 13 35 12 4 -1 7 3 7 9 0 5 5 7 10 4 10 -6 31 34 34 65 1 8 8 26 15 39 12 23 11 27 -11 45 -53 44 -47 92 7 61 35 -21 66 -25 72 -9 3 8 11 14 19 14 8 0 14 5 14 11 0 5 5 7 10 4 6 -3 10 -2 10 3 0 6 8 9 18 8 14 -1 17 8 17 46 1 46 19 83 36 72 5 -3 7 -10 3 -15z"/>
<path d="M1640 1759 c0 -5 -3 -8 -7 -6 -8 2 -53 -39 -53 -48 0 -3 -1 -6 -1 -7 -7 -13 -3 -88 5 -88 5 0 7 -3 4 -6 -5 -5 40 -57 52 -60 3 0 17 -4 33 -8 17 -5 32 -4 41 3 7 6 16 8 19 4 9 -8 68 57 62 68 -3 4 -1 10 5 14 5 3 10 17 10 30 0 13 -5 27 -10 30 -6 4 -8 11 -5 16 4 5 1 9 -4 9 -6 0 -11 6 -11 14 0 7 -7 19 -16 26 -17 15 -124 22 -124 9z m102 -36 c14 -16 28 -39 31 -53 8 -31 -12 -90 -30 -90 -7 0 -13 -4 -13 -8 0 -8 -21 -9 -80 -4 -21 2 -54 55 -53 87 1 38 22 75 43 75 11 0 20 5 20 10 0 22 57 10 82 -17z"/>
<path d="M773 1992 c-53 -3 -72 -18 -79 -62 -11 -61 -21 -85 -37 -82 -9 2 -17 -3 -17 -9 0 -7 -3 -9 -7 -6 -3 4 -17 0 -30 -8 -13 -9 -23 -12 -23 -8 0 5 -4 3 -8 -4 -9 -15 -62 -25 -62 -12 0 5 -7 9 -15 9 -8 0 -15 5 -15 10 0 6 -6 10 -14 10 -8 0 -16 5 -18 10 -2 6 -17 12 -33 13 -23 3 -37 -4 -60 -28 -41 -43 -42 -77 -2 -117 18 -17 25 -28 17 -23 -10 6 -9 2 3 -12 17 -20 17 -23 1 -59 -9 -22 -16 -42 -16 -46 1 -5 -2 -8 -8 -8 -5 0 -7 -6 -5 -12 7 -20 -20 -49 -49 -54 -14 -2 -37 -6 -51 -8 -41 -7 -53 -24 -57 -80 -3 -54 5 -71 32 -74 8 -1 29 -4 45 -7 17 -3 39 -7 50 -8 13 -2 19 -9 17 -20 -2 -9 2 -17 8 -17 5 0 9 -3 9 -7 -1 -5 0 -11 1 -15 1 -5 3 -11 4 -15 6 -27 18 -53 24 -53 15 0 11 -48 -4 -54 -8 -3 -12 -10 -9 -16 3 -5 1 -10 -4 -10 -6 0 -11 -7 -11 -15 0 -9 -6 -18 -14 -21 -21 -8 -13 -60 12 -87 23 -25 82 -42 82 -25 0 5 5 6 10 3 6 -3 13 1 16 9 3 9 11 16 16 16 5 0 23 9 39 21 16 11 29 15 29 9 0 -6 5 -8 10 -5 6 3 10 1 10 -5 0 -6 5 -8 10 -5 6 3 10 1 10 -6 0 -7 3 -9 7 -6 3 4 17 0 30 -8 13 -9 27 -13 32 -11 14 9 36 -25 33 -50 -2 -14 2 -24 8 -24 8 0 10 -9 6 -25 -4 -15 -2 -25 4 -25 6 0 9 -4 5 -9 -15 -25 91 -43 125 -21 8 5 16 17 17 27 1 10 5 32 8 48 3 17 6 38 6 48 0 9 7 17 15 17 8 0 14 4 14 10 0 5 3 9 8 8 4 -1 21 4 37 11 17 7 35 14 40 15 6 1 20 8 33 14 14 8 22 9 22 2 0 -5 6 -10 14 -10 8 0 17 -7 20 -16 3 -8 10 -12 16 -9 5 3 10 1 10 -4 0 -6 7 -11 15 -11 8 0 15 -4 15 -9 0 -20 36 -4 66 29 48 54 50 72 12 111 -18 18 -26 29 -18 24 8 -4 5 3 -8 17 -20 22 -21 26 -7 38 8 7 13 15 11 18 -3 2 0 14 6 26 7 11 11 24 10 29 -1 4 3 7 9 7 6 0 9 6 6 13 -6 16 14 43 33 45 33 2 111 19 117 26 3 2 6 29 6 60 2 65 -8 74 -106 90 -38 6 -56 23 -50 46 3 12 0 20 -6 20 -7 0 -9 5 -6 10 3 6 1 10 -5 10 -6 0 -8 5 -5 10 3 6 1 10 -5 10 -6 0 -8 5 -5 10 3 6 1 10 -5 10 -6 0 -9 4 -6 9 4 5 0 12 -6 15 -10 5 -10 7 0 12 6 3 12 12 12 20 0 8 5 14 10 14 6 0 10 7 10 15 0 8 5 15 10 15 6 0 10 7 10 15 0 8 4 15 8 15 18 0 3 52 -22 79 -30 31 -72 36 -94 11 -12 -13 -12 -13 -6 0 7 13 6 13 -12 0 -10 -8 -27 -23 -37 -35 -10 -11 -16 -15 -14 -10 3 6 -6 10 -21 9 -15 -1 -34 4 -42 11 -8 6 -25 12 -37 13 -36 1 -74 32 -68 53 4 11 2 19 -5 19 -7 0 -9 7 -6 16 4 9 1 23 -5 30 -6 7 -9 17 -6 21 10 17 -20 28 -70 25z m47 -47 c0 -14 4 -25 9 -25 4 0 6 -11 3 -25 -2 -14 0 -25 7 -25 6 0 10 -10 8 -22 -1 -13 3 -22 10 -21 6 2 24 -4 39 -12 15 -8 31 -12 36 -9 4 3 8 0 8 -6 0 -6 5 -8 10 -5 6 3 10 1 10 -5 0 -6 5 -8 10 -5 6 3 10 1 10 -5 0 -6 5 -8 10 -5 6 3 10 1 10 -4 0 -14 43 -7 48 7 2 7 8 10 13 6 5 -3 12 2 15 10 3 9 12 16 20 16 8 0 14 5 14 10 0 19 33 10 67 -20 18 -16 29 -30 23 -30 -6 0 -8 -4 -5 -10 3 -5 1 -10 -4 -10 -6 0 -11 -7 -11 -15 0 -8 -4 -15 -10 -15 -5 0 -10 -7 -10 -15 0 -8 -4 -15 -10 -15 -5 0 -10 -6 -10 -14 0 -8 -6 -17 -12 -20 -10 -5 -10 -7 0 -12 6 -3 10 -10 6 -15 -3 -5 2 -12 10 -15 9 -3 13 -10 10 -15 -3 -5 0 -9 6 -9 6 0 9 -4 5 -9 -3 -5 -1 -12 5 -16 6 -4 8 -11 4 -16 -10 -17 36 -79 59 -78 73 2 117 -22 117 -62 0 -34 -15 -53 -45 -57 -11 -1 -31 -5 -45 -8 -14 -3 -34 -6 -46 -7 -11 -1 -21 -8 -22 -14 -1 -7 -3 -20 -4 -28 -1 -8 -5 -15 -10 -15 -6 0 -8 -6 -5 -12 5 -14 -21 -68 -38 -80 -7 -5 -7 -8 0 -8 6 0 3 -5 -5 -10 -13 -9 -13 -12 3 -24 9 -7 17 -18 17 -25 0 -6 5 -11 10 -11 6 0 10 -7 10 -15 0 -8 5 -15 10 -15 6 0 10 -6 10 -14 0 -8 5 -16 12 -18 11 -4 -44 -68 -58 -68 -3 0 -17 9 -31 20 -14 11 -29 17 -34 14 -5 -3 -9 0 -9 5 0 6 -7 11 -15 11 -7 0 -19 8 -25 18 -8 12 -13 13 -16 4 -3 -6 -10 -10 -15 -6 -5 3 -9 1 -9 -4 0 -9 -37 -25 -52 -23 -5 1 -8 -4 -8 -10 0 -5 -4 -8 -9 -4 -5 3 -12 1 -15 -4 -3 -5 -15 -7 -26 -4 -12 3 -20 0 -20 -6 0 -7 -5 -9 -12 -5 -8 5 -9 2 -5 -10 4 -10 3 -25 -2 -34 -5 -9 -11 -33 -13 -52 -4 -42 -12 -50 -59 -50 -32 0 -38 4 -45 28 -10 34 -15 62 -15 84 0 20 -37 50 -51 42 -4 -3 -8 0 -8 6 0 7 -6 10 -14 7 -8 -3 -26 3 -39 14 -14 10 -32 19 -40 19 -9 0 -18 6 -21 13 -5 10 -7 10 -12 0 -3 -7 -12 -13 -20 -13 -8 0 -14 -4 -14 -10 0 -5 -7 -10 -15 -10 -8 0 -15 -4 -15 -10 0 -5 -6 -10 -14 -10 -7 0 -19 -7 -26 -14 -10 -13 -16 -10 -39 17 -27 31 -37 67 -19 67 4 0 8 6 8 14 0 8 7 17 16 20 9 4 14 9 10 13 -3 3 3 12 14 20 25 18 25 24 1 50 -11 12 -17 24 -14 27 4 3 1 6 -6 6 -7 0 -9 5 -6 10 3 6 1 10 -5 10 -6 0 -9 4 -5 9 3 5 1 12 -4 15 -5 3 -7 15 -4 26 3 11 0 20 -6 20 -6 0 -11 7 -11 16 0 8 -4 12 -10 9 -5 -3 -18 -1 -28 4 -11 6 -36 12 -56 14 -48 5 -58 16 -54 62 2 29 8 39 23 42 73 15 101 20 123 22 7 0 11 5 8 10 -3 5 1 21 9 37 7 15 12 31 9 36 -3 4 0 8 6 8 6 0 9 4 5 9 -3 5 2 17 11 25 8 9 13 16 9 16 -4 0 1 8 10 17 16 15 16 18 1 28 -9 7 -16 17 -16 24 0 6 -4 11 -10 11 -5 0 -10 7 -10 15 0 8 -4 15 -9 15 -5 0 -12 14 -16 31 -11 51 39 89 74 57 11 -11 13 -10 7 2 -4 8 2 4 13 -10 11 -14 21 -21 21 -16 0 6 6 2 13 -8 14 -20 67 -31 67 -15 0 6 5 7 10 4 6 -3 10 -2 10 4 0 10 39 27 54 23 4 -2 19 4 32 13 14 9 29 13 34 10 6 -3 11 -3 11 2 4 22 9 70 10 86 0 9 4 17 10 17 5 0 9 9 9 20 0 17 7 20 45 20 41 0 45 -2 45 -25z"/>
<path d="M700 1709 c0 -5 -7 -6 -15 -3 -8 4 -15 1 -15 -5 0 -6 -6 -8 -13 -5 -7 2 -24 -6 -37 -18 -14 -13 -25 -22 -25 -20 0 2 -20 -15 -44 -37 -24 -23 -40 -41 -36 -41 5 0 1 -6 -8 -12 -9 -7 -19 -24 -21 -38 -3 -14 -5 -25 -6 -25 -14 0 -22 -146 -9 -161 6 -7 8 -18 5 -23 -4 -5 -2 -12 4 -16 6 -4 8 -11 5 -16 -4 -5 -1 -9 5 -9 6 0 8 -4 5 -10 -3 -5 -1 -10 5 -10 6 0 9 -4 6 -9 -3 -5 1 -11 9 -15 8 -3 15 -11 15 -19 0 -16 41 -57 58 -57 7 0 12 -4 12 -8 0 -6 40 -27 73 -37 4 -1 8 -3 10 -5 7 -6 57 -12 97 -12 80 1 90 2 90 12 0 5 6 7 13 4 7 -2 23 5 35 16 12 11 22 17 22 13 0 -4 6 -1 13 8 7 8 20 18 30 22 9 4 20 15 24 24 4 10 15 24 25 31 10 7 16 17 13 22 -3 4 2 13 11 20 8 7 13 19 10 26 -2 6 -2 15 2 18 17 18 19 162 2 184 -2 1 -4 7 -5 12 -1 6 -4 13 -5 18 -1 4 -2 10 -1 15 0 4 -4 7 -10 7 -5 0 -7 4 -4 10 6 10 -69 95 -84 95 -4 0 -15 8 -25 18 -10 9 -22 15 -27 12 -5 -4 -9 -1 -9 5 0 6 -4 9 -9 5 -5 -3 -12 -1 -16 5 -4 6 -11 8 -16 5 -5 -4 -9 -2 -9 3 0 5 -34 9 -75 9 -41 0 -75 -4 -75 -8z m142 -22 c15 -2 34 -9 41 -16 8 -6 17 -8 20 -4 4 3 7 1 7 -5 0 -7 7 -12 15 -12 8 0 15 -5 15 -10 0 -6 12 -15 26 -20 14 -6 23 -14 19 -19 -3 -5 4 -16 15 -24 11 -7 17 -17 13 -20 -3 -4 0 -7 7 -7 7 0 10 -3 7 -7 -4 -3 0 -15 10 -25 9 -10 13 -18 8 -18 -4 0 -3 -6 3 -12 5 -7 8 -46 6 -88 -4 -94 -5 -100 -16 -100 -5 0 -6 -4 -3 -10 3 -5 1 -10 -5 -10 -6 0 -8 -4 -5 -10 3 -5 1 -10 -4 -10 -6 0 -11 -4 -11 -9 0 -12 -69 -81 -81 -81 -5 0 -9 -5 -9 -11 0 -5 -4 -7 -10 -4 -5 3 -10 1 -10 -5 0 -6 -4 -9 -8 -6 -5 3 -31 -2 -58 -10 -44 -13 -72 -13 -149 1 -11 2 -23 4 -26 4 -3 1 -17 11 -31 24 -13 12 -41 36 -61 54 -20 17 -39 43 -43 57 -3 14 -10 26 -15 26 -5 0 -8 3 -8 8 1 4 1 9 -1 12 -22 58 -14 185 12 202 7 4 9 8 4 8 -6 0 -1 7 10 16 10 8 12 13 4 9 -10 -4 -9 -2 3 8 9 8 17 19 17 24 0 13 40 49 40 37 1 -5 9 1 19 13 10 12 21 19 25 16 3 -4 6 -1 6 6 0 7 5 9 10 6 6 -3 10 -1 10 5 0 6 4 9 9 5 5 -3 12 -1 16 5 4 6 11 8 16 5 5 -4 17 -2 26 4 17 9 47 9 115 -2z"/>
<path d="M759 1545 c-4 -3 -15 -7 -26 -9 -22 -5 -84 -62 -75 -71 3 -3 0 -5 -6 -5 -12 0 -10 -84 3 -114 21 -48 58 -68 130 -71 43 -1 54 3 83 30 32 29 35 36 36 93 0 34 -2 62 -6 62 -5 0 -8 4 -8 10 0 13 -48 59 -54 52 -3 -3 -6 -1 -6 5 0 5 -6 10 -12 11 -7 0 -22 3 -33 7 -11 3 -23 4 -26 0z m85 -48 c4 4 9 -3 13 -15 3 -12 9 -22 14 -22 5 0 6 -7 3 -15 -4 -8 -1 -15 5 -15 6 0 11 -11 11 -25 0 -17 -15 -41 -45 -70 -45 -46 -79 -57 -103 -33 -7 7 -12 9 -12 4 0 -4 -14 7 -31 24 -24 23 -31 40 -31 68 -1 72 22 101 90 111 33 5 52 4 63 -6 9 -7 19 -10 23 -6z"/>
<path d="M1608 1209 c-10 -10 -15 -19 -11 -19 3 0 -2 -9 -11 -19 -10 -11 -15 -25 -11 -30 3 -6 1 -11 -5 -11 -6 0 -9 -4 -6 -9 9 -13 -31 -43 -62 -47 -22 -2 -39 7 -81 46 -60 55 -81 61 -105 28 -9 -13 -14 -16 -10 -8 4 8 -5 2 -20 -14 -18 -19 -25 -34 -20 -45 4 -9 6 -19 6 -23 -1 -5 2 -8 6 -8 4 0 8 -10 9 -22 1 -11 8 -25 15 -29 7 -5 9 -9 4 -9 -5 0 -3 -6 3 -14 9 -10 7 -17 -5 -27 -9 -7 -20 -24 -25 -37 -9 -22 -13 -23 -78 -20 -46 2 -72 -1 -80 -9 -7 -7 -9 -13 -5 -13 3 0 1 -7 -6 -15 -6 -8 -9 -19 -5 -25 4 -6 2 -17 -5 -25 -8 -9 -8 -15 0 -20 6 -3 8 -10 5 -15 -5 -8 33 -26 48 -22 4 1 7 -3 7 -10 0 -6 3 -8 7 -5 3 4 15 0 25 -10 10 -9 21 -13 25 -10 10 11 31 -38 28 -66 -2 -15 -23 -45 -50 -72 -39 -37 -46 -50 -41 -70 4 -14 11 -25 16 -25 6 0 10 -4 10 -10 0 -5 8 -18 18 -27 16 -16 29 -19 57 -13 6 1 13 2 18 1 4 0 7 4 7 10 0 5 4 8 9 4 5 -3 12 -1 16 5 4 6 11 8 16 5 5 -4 9 -2 9 2 0 16 43 12 56 -5 8 -9 14 -13 14 -9 0 5 7 1 16 -7 12 -12 15 -32 12 -80 -3 -56 0 -66 17 -77 11 -7 26 -12 33 -11 6 2 12 -2 12 -8 0 -15 49 -12 66 5 8 8 17 24 19 36 2 12 9 27 15 33 5 7 7 16 3 19 -3 4 -1 7 5 7 7 0 12 6 12 14 0 14 45 32 65 26 6 -1 16 -3 23 -3 7 0 29 -19 50 -41 41 -44 83 -54 105 -25 7 8 19 18 28 21 14 5 19 45 9 68 -1 3 -2 8 -1 13 0 4 -4 7 -11 7 -6 0 -8 3 -5 7 4 3 2 12 -4 20 -6 7 -8 13 -3 13 5 0 4 4 -3 8 -10 6 -9 14 2 35 10 19 10 25 2 21 -7 -4 1 5 17 20 26 25 35 27 93 25 66 -2 87 8 76 38 -3 7 0 13 6 13 6 0 10 14 9 33 -3 33 -18 58 -30 51 -4 -2 -9 0 -13 6 -4 6 -11 8 -16 5 -5 -4 -9 -1 -9 5 0 6 -4 9 -9 5 -5 -3 -16 2 -24 10 -9 8 -20 15 -26 15 -6 0 -11 11 -11 24 0 13 -5 26 -12 28 -7 3 8 26 37 57 34 37 50 62 51 82 1 16 -3 29 -7 29 -5 0 -9 7 -9 15 0 8 -4 15 -10 15 -5 0 -10 6 -10 14 0 19 -37 31 -54 17 -7 -6 -16 -8 -19 -4 -4 3 -7 2 -7 -3 0 -5 -10 -10 -22 -11 -11 -1 -25 -8 -29 -15 -5 -7 -9 -9 -9 -4 0 5 -6 3 -14 -3 -11 -9 -15 -8 -20 4 -3 9 -10 13 -16 10 -5 -3 -10 -1 -10 5 0 6 -4 8 -10 5 -14 -9 -23 40 -16 87 4 27 2 45 -6 56 -7 8 -12 18 -10 21 1 3 -2 7 -8 7 -5 1 -11 3 -12 4 -2 1 -12 4 -23 6 -11 1 -29 5 -40 8 -12 3 -27 -3 -37 -15z m91 -24 c6 -3 11 -36 11 -73 0 -37 5 -74 10 -82 5 -8 10 -12 10 -8 0 4 12 -4 26 -17 15 -14 30 -22 35 -19 5 3 9 -1 10 -8 0 -10 2 -10 6 0 2 6 9 10 14 6 5 -3 9 -1 9 5 0 6 6 8 14 5 7 -3 20 1 27 9 8 7 20 12 27 9 6 -2 12 1 12 7 0 30 62 -16 67 -50 2 -8 -20 -37 -47 -64 -47 -46 -62 -75 -41 -75 6 0 9 -8 9 -17 -1 -26 20 -73 32 -73 21 0 25 -2 42 -17 9 -8 21 -12 26 -9 5 3 18 -2 30 -10 16 -11 20 -20 13 -32 -4 -9 -6 -23 -4 -30 11 -30 -19 -43 -95 -41 -60 2 -76 -1 -84 -14 -5 -10 -6 -17 -2 -17 4 0 -1 -6 -11 -14 -17 -12 -29 -56 -15 -56 3 0 6 -10 7 -22 1 -11 7 -24 13 -28 7 -4 11 -9 9 -11 -1 -2 1 -14 5 -26 5 -15 2 -31 -8 -45 -9 -12 -16 -19 -16 -14 0 5 -6 4 -13 -2 -7 -6 -20 -10 -30 -8 -21 3 -98 76 -92 87 6 9 -15 6 -32 -4 -7 -5 -16 -6 -21 -3 -4 2 -22 -2 -40 -9 -28 -12 -38 -29 -33 -57 0 -5 -4 -8 -10 -8 -5 0 -8 -4 -5 -9 3 -5 -1 -14 -9 -21 -8 -7 -15 -18 -15 -26 0 -18 -61 -15 -83 4 -14 13 -18 30 -17 77 2 81 1 87 -8 81 -5 -3 -20 5 -33 17 -22 21 -59 32 -59 18 0 -4 -10 -7 -22 -8 -11 -1 -24 -7 -28 -13 -4 -7 -11 -11 -16 -11 -5 0 -17 -2 -27 -5 -19 -6 -57 25 -57 45 0 5 -5 11 -10 13 -6 2 15 31 45 66 53 61 68 92 44 92 -6 0 -9 9 -6 19 5 22 -35 67 -51 57 -6 -3 -18 1 -27 10 -9 9 -19 14 -22 11 -3 -3 -11 -1 -17 6 -15 15 -27 57 -16 57 4 0 11 11 14 25 6 23 10 25 70 25 70 0 99 7 90 21 -3 5 0 9 5 9 6 0 11 7 11 15 0 7 8 19 18 25 12 8 13 13 4 16 -6 3 -10 10 -6 15 3 5 1 9 -3 9 -5 0 -9 10 -10 22 -1 11 -7 24 -13 28 -7 4 -11 9 -10 11 1 2 -2 12 -6 22 -7 18 24 57 45 57 5 0 11 5 13 12 3 7 27 -11 55 -40 48 -49 64 -58 88 -52 6 2 17 4 25 5 32 4 60 17 55 26 -4 5 -1 9 5 9 6 0 8 5 5 10 -3 6 -1 10 5 10 7 0 10 6 7 14 -3 8 -2 16 3 18 4 2 10 12 12 23 1 11 6 23 10 26 10 7 63 3 77 -6z"/>
<path d="M1510 967 c0 -4 -4 -5 -10 -2 -5 3 -10 1 -10 -5 0 -6 -5 -8 -11 -4 -7 4 -20 -4 -31 -17 -11 -13 -16 -17 -12 -9 5 10 0 9 -14 -4 -12 -11 -22 -25 -22 -33 0 -7 -7 -16 -15 -19 -8 -4 -12 -10 -9 -15 3 -5 0 -9 -6 -9 -6 0 -8 -4 -5 -10 3 -5 2 -10 -3 -10 -5 0 -9 -6 -10 -12 -7 -90 -7 -148 0 -148 5 0 6 -4 3 -10 -3 -5 -2 -10 4 -10 6 0 8 -7 5 -15 -4 -8 1 -17 10 -21 9 -3 16 -11 16 -17 0 -17 52 -67 70 -67 8 0 24 -6 35 -14 23 -16 152 -19 161 -5 3 5 10 7 15 4 5 -4 9 -1 9 5 0 6 5 8 10 5 6 -3 10 -1 10 4 0 6 3 10 8 9 4 -1 23 14 44 35 20 20 33 37 30 37 -4 0 -1 4 6 9 7 4 15 17 17 27 2 10 4 19 6 19 4 0 11 51 10 80 0 54 -2 65 -12 70 -5 4 -7 11 -4 16 4 5 1 9 -5 9 -6 0 -8 5 -5 10 3 6 1 10 -4 10 -6 0 -11 4 -11 9 0 12 -59 71 -70 71 -5 0 -10 4 -12 10 -1 5 -14 11 -28 14 -14 2 -25 5 -25 6 0 1 -30 2 -67 4 -38 1 -68 -2 -68 -7z m130 -20 c8 -3 25 -8 38 -12 12 -4 22 -11 22 -15 0 -4 9 -10 19 -13 11 -3 26 -21 34 -40 8 -19 20 -38 26 -41 5 -4 8 -13 4 -21 -3 -8 -1 -15 4 -15 18 0 8 -126 -10 -145 -9 -9 -17 -22 -17 -28 0 -25 -88 -83 -117 -78 -7 1 -13 -2 -13 -6 0 -7 -83 -9 -100 -3 -3 1 -14 3 -24 5 -10 2 -23 10 -27 17 -5 7 -9 10 -9 7 0 -4 -17 9 -37 30 -21 20 -36 39 -35 44 1 4 -2 7 -8 7 -5 0 -7 7 -4 15 4 8 2 15 -3 15 -11 0 -15 16 -15 70 0 54 4 70 15 70 5 0 7 7 3 15 -3 8 -1 15 4 15 6 0 10 4 10 9 0 13 58 70 64 63 3 -3 8 3 12 12 3 9 10 14 14 11 5 -3 11 -1 15 4 3 6 12 8 20 4 8 -3 15 0 15 7 0 12 62 10 100 -3z"/>
<path d="M1535 861 c-16 -10 -33 -17 -36 -15 -11 6 -38 -30 -43 -58 -2 -15 -7 -32 -10 -36 -7 -11 23 -91 42 -114 8 -10 19 -15 23 -12 5 3 9 0 9 -6 0 -6 5 -8 10 -5 6 3 10 1 10 -4 0 -6 20 -11 43 -11 39 0 48 5 89 48 40 42 45 52 45 95 1 26 -3 47 -8 47 -5 0 -9 5 -9 10 0 6 -10 20 -22 33 -13 12 -26 21 -30 20 -5 -2 -8 2 -8 8 0 5 -4 7 -10 4 -5 -3 -10 -1 -10 4 0 17 -52 12 -85 -8z m108 -29 c15 -6 27 -18 27 -27 0 -8 4 -15 10 -15 5 0 7 -7 4 -15 -4 -8 -1 -15 5 -15 6 0 11 -9 11 -20 0 -11 -5 -20 -11 -20 -6 0 -9 -7 -5 -15 3 -8 0 -15 -6 -15 -6 0 -9 -3 -5 -6 7 -7 -26 -42 -35 -37 -5 2 -8 -1 -8 -7 0 -6 -4 -9 -8 -6 -4 2 -14 1 -21 -4 -19 -11 -70 8 -100 38 -17 17 -25 36 -26 68 -1 24 3 44 8 44 6 0 8 3 5 6 -4 3 7 18 23 34 32 30 78 34 132 12z"/>
</g>
<g id="layer103" fill="#ffffff" stroke="none">
<path d="M1600 2016 c-5 -7 -9 -35 -8 -62 2 -35 -1 -48 -9 -46 -7 1 -13 -3 -13 -9 0 -5 -4 -7 -10 -4 -5 3 -10 1 -10 -5 0 -6 -4 -9 -9 -6 -5 4 -11 1 -13 -6 -2 -6 -14 -12 -26 -13 -12 -1 -18 3 -15 8 4 6 0 8 -10 4 -10 -3 -17 -2 -17 3 0 5 -7 6 -17 3 -11 -4 -14 -3 -9 5 12 20 -22 14 -44 -8 -22 -22 -26 -40 -9 -40 5 0 8 -4 5 -9 -3 -5 6 -16 20 -26 14 -9 23 -19 20 -22 -3 -4 -1 -12 5 -20 7 -8 8 -13 1 -13 -5 0 -8 -9 -5 -20 3 -11 0 -20 -6 -20 -6 0 -10 -10 -8 -22 1 -17 -3 -23 -15 -22 -10 1 -15 -2 -12 -7 3 -5 -2 -9 -10 -9 -25 0 -30 -2 -44 -19 -8 -9 -10 -10 -6 -2 4 9 3 12 -4 7 -7 -4 -8 -17 -1 -39 5 -17 9 -32 9 -32 0 -1 16 1 35 3 21 3 35 0 35 -7 0 -6 9 -11 20 -11 37 0 72 -97 45 -124 -8 -7 -11 -17 -7 -20 3 -4 0 -11 -8 -16 -11 -7 -11 -11 -1 -24 14 -17 52 -22 65 -8 4 4 11 7 16 7 4 0 17 11 29 25 11 14 20 20 21 13 0 -7 7 -10 17 -6 11 4 14 3 9 -6 -6 -8 -1 -10 18 -5 28 7 73 -26 61 -45 -3 -6 -1 -11 6 -11 7 0 10 -3 6 -6 -3 -3 5 -17 19 -31 24 -24 26 -24 40 -7 9 11 12 13 8 5 -4 -8 -3 -12 3 -8 5 3 8 20 5 37 -2 18 0 30 7 30 6 0 11 13 11 29 0 22 6 32 23 37 12 4 24 6 25 5 2 -1 9 5 16 15 14 19 61 11 50 -8 -5 -7 -1 -9 9 -5 10 3 17 3 17 -1 0 -4 14 -7 32 -6 29 1 32 4 33 30 0 18 -8 36 -23 47 -12 10 -20 23 -16 28 3 5 -1 12 -10 15 -8 3 -12 12 -9 20 3 8 9 11 14 8 5 -3 6 9 3 26 -4 19 -2 30 5 30 6 0 11 7 11 16 0 10 6 14 15 10 8 -3 15 -1 15 5 0 6 5 7 11 3 7 -4 20 4 31 17 11 13 16 18 12 10 -4 -9 -3 -12 4 -7 17 10 10 45 -10 52 -10 3 -18 10 -18 15 0 5 -17 6 -42 3 -30 -5 -39 -4 -34 4 4 7 1 12 -9 12 -9 0 -13 5 -10 10 3 6 1 10 -5 10 -6 0 -9 4 -6 9 3 5 -1 12 -10 15 -8 3 -12 10 -9 16 3 5 1 10 -4 10 -6 0 -11 5 -11 11 0 5 5 7 12 3 8 -5 9 -2 5 9 -3 10 -2 17 4 17 6 0 7 5 3 11 -3 6 -2 14 3 18 16 10 -4 68 -24 68 -10 0 -21 -5 -25 -11 -4 -6 -11 -11 -17 -11 -5 0 -17 -10 -28 -23 -14 -19 -24 -22 -46 -17 -15 4 -24 12 -20 18 4 6 -2 8 -17 4 -26 -7 -64 27 -56 50 3 7 1 13 -5 13 -6 0 -7 5 -4 10 3 6 5 10 3 10 -2 0 -17 4 -35 9 -23 7 -35 6 -43 -3z m52 -31 c-2 -10 1 -14 7 -10 6 3 11 -1 11 -9 0 -35 19 -56 49 -56 12 0 21 -4 21 -10 0 -5 7 -7 15 -4 8 4 15 1 15 -5 0 -6 7 -8 17 -4 11 4 14 3 9 -5 -4 -7 -4 -12 -1 -12 11 0 50 53 47 63 -1 5 2 6 8 2 6 -3 8 -12 4 -18 -3 -7 3 -1 14 13 12 14 24 21 28 17 11 -11 14 -37 3 -37 -4 0 -6 -7 -3 -15 4 -8 1 -15 -6 -15 -6 0 -8 -4 -5 -10 3 -5 1 -10 -5 -10 -6 0 -8 -4 -5 -10 3 -5 0 -10 -7 -10 -8 0 -6 -5 5 -11 9 -6 15 -14 12 -19 -3 -4 2 -11 11 -14 8 -3 12 -10 9 -16 -3 -5 -1 -10 5 -10 6 0 9 -4 6 -9 -3 -5 2 -12 11 -15 15 -6 15 -8 3 -17 -11 -7 1 -8 38 -4 59 8 91 -6 69 -30 -7 -7 -15 -11 -19 -8 -5 2 -8 -1 -8 -7 0 -6 -4 -8 -10 -5 -5 3 -10 1 -10 -5 0 -7 -7 -10 -15 -6 -8 3 -15 1 -15 -5 0 -6 -4 -7 -10 -4 -6 3 -7 -1 -4 -9 3 -9 2 -16 -4 -16 -5 0 -7 -11 -4 -25 2 -14 0 -25 -7 -25 -5 0 -8 -7 -5 -15 4 -8 1 -15 -6 -15 -9 0 -6 -8 6 -22 13 -14 14 -19 4 -14 -8 5 -1 -4 17 -18 22 -18 30 -32 26 -46 -6 -23 -26 -26 -45 -7 -7 8 -18 12 -24 10 -7 -2 -18 3 -26 11 -13 12 -16 11 -27 -6 -7 -11 -15 -17 -18 -14 -3 3 -11 -1 -17 -10 -6 -8 -20 -16 -31 -16 -17 -2 -20 -8 -17 -35 3 -21 0 -33 -8 -33 -7 0 -10 -7 -6 -17 4 -9 1 -20 -6 -25 -18 -11 -30 -10 -23 2 3 6 2 10 -4 10 -6 0 -7 7 -4 17 4 10 2 14 -4 10 -12 -7 -26 20 -18 33 7 11 -25 23 -54 21 -16 -2 -21 1 -15 10 5 9 2 10 -11 5 -10 -4 -21 -2 -25 4 -4 7 -16 3 -33 -11 -15 -11 -24 -25 -21 -31 4 -7 2 -8 -5 -4 -6 4 -9 13 -6 19 3 7 -1 2 -10 -9 -20 -27 -55 -22 -48 7 3 10 10 19 15 19 5 0 6 5 3 10 -3 6 -1 10 5 10 6 0 8 5 5 11 -4 6 1 16 11 23 16 12 16 14 -9 31 -15 9 -25 21 -22 25 3 4 -2 11 -11 14 -9 4 -14 13 -10 21 4 11 -2 15 -24 15 -17 0 -30 5 -30 11 0 7 -11 8 -29 4 -17 -3 -32 -2 -36 4 -7 13 19 43 29 34 3 -4 6 -1 6 6 0 8 7 11 15 7 8 -3 15 -1 15 5 0 6 5 7 10 4 6 -4 13 7 16 24 4 17 11 31 16 31 5 0 6 5 3 10 -4 6 -1 17 5 25 7 8 9 15 4 15 -5 0 -2 5 6 10 12 8 8 16 -25 46 -22 19 -33 33 -25 29 12 -5 11 -3 -1 7 -14 11 -14 15 -3 26 8 7 14 8 14 3 0 -6 6 -8 14 -5 7 3 21 -2 30 -11 9 -9 16 -14 16 -10 0 3 8 1 18 -4 14 -7 21 -5 30 10 7 11 17 17 22 14 6 -3 10 -1 10 5 0 6 5 8 10 5 6 -3 10 -2 10 3 0 6 8 9 18 8 14 -1 16 6 14 46 -2 29 1 53 10 62 17 19 34 14 30 -9z m-147 -505 c3 -5 4 -10 1 -10 -3 0 -8 5 -11 10 -3 6 -4 10 -1 10 3 0 8 -4 11 -10z"/>
<path d="M1640 1757 c0 -5 -4 -6 -8 -3 -5 3 -15 -6 -22 -19 -7 -13 -16 -22 -20 -20 -3 2 -7 -17 -9 -42 -1 -26 -4 -50 -7 -55 -3 -4 0 -8 7 -8 7 0 10 -2 7 -6 -9 -8 45 -60 58 -56 7 2 15 -1 19 -7 8 -14 45 -14 45 0 0 6 7 8 16 5 17 -6 67 37 56 48 -3 3 0 6 6 6 7 0 11 3 11 8 -1 4 0 9 1 12 6 17 4 60 -3 60 -5 0 -7 6 -4 14 3 8 -1 17 -10 20 -9 4 -13 9 -10 13 11 10 -13 32 -29 26 -8 -3 -14 -1 -14 3 0 5 -20 9 -45 9 -25 0 -45 -4 -45 -8z m109 -34 c14 -16 24 -36 22 -47 -1 -11 2 -16 8 -12 7 4 11 -1 11 -13 0 -12 -5 -21 -11 -21 -5 0 -7 -4 -4 -10 3 -5 1 -10 -6 -10 -7 0 -9 -3 -6 -7 9 -9 -13 -34 -24 -27 -5 3 -9 0 -9 -6 0 -6 -4 -8 -10 -5 -5 3 -10 1 -10 -4 0 -6 -9 -11 -20 -11 -11 0 -20 5 -20 11 0 5 -5 7 -11 4 -12 -8 -61 34 -53 46 3 5 0 9 -5 9 -6 0 -11 16 -11 35 0 20 5 35 12 35 6 0 8 3 5 7 -12 11 24 42 41 36 10 -4 13 -2 8 5 -5 8 4 12 30 12 27 0 43 -7 63 -27z m16 17 c3 -5 4 -10 1 -10 -3 0 -8 5 -11 10 -3 6 -4 10 -1 10 3 0 8 -4 11 -10z"/>
<path d="M713 1970 c-3 -11 -9 -20 -13 -20 -4 0 -5 -11 -2 -25 2 -14 0 -25 -6 -25 -6 0 -10 -12 -9 -27 2 -24 -2 -28 -21 -26 -16 2 -21 -1 -16 -9 5 -8 2 -9 -9 -5 -10 3 -17 2 -17 -4 0 -6 -4 -7 -10 -4 -5 3 -10 1 -10 -5 0 -7 -5 -10 -12 -8 -6 2 -20 -4 -30 -14 -20 -20 -43 -25 -32 -6 4 7 3 8 -4 4 -7 -4 -12 -2 -12 4 0 6 -5 8 -10 5 -6 -3 -13 1 -16 9 -3 9 -10 14 -14 11 -5 -3 -13 3 -19 12 -6 10 -11 15 -11 11 0 -4 -12 -3 -27 0 -23 6 -33 2 -58 -24 -35 -36 -39 -76 -10 -100 11 -8 13 -13 5 -9 -8 4 -4 -3 10 -15 14 -12 18 -19 10 -15 -8 4 -4 -3 10 -14 19 -16 22 -23 12 -30 -8 -4 -14 -11 -14 -14 0 -19 -12 -47 -20 -47 -5 0 -6 -4 -3 -10 3 -5 2 -10 -3 -10 -6 0 -8 -9 -5 -20 3 -12 0 -20 -6 -20 -7 0 -10 -4 -7 -9 7 -11 -22 -23 -35 -15 -6 3 -16 0 -24 -6 -8 -7 -22 -10 -30 -6 -8 3 -15 2 -15 -3 0 -5 -9 -11 -19 -14 -15 -4 -20 -16 -23 -60 -3 -60 8 -79 41 -70 11 3 21 1 21 -4 0 -6 11 -8 25 -5 14 2 25 0 25 -6 0 -5 8 -9 18 -8 11 1 16 -5 14 -18 -2 -12 1 -16 9 -10 9 5 10 2 6 -9 -4 -10 -2 -17 4 -17 6 0 9 -7 5 -15 -3 -8 -1 -15 5 -15 6 0 7 -4 4 -10 -3 -5 -1 -10 5 -10 6 0 8 -4 5 -10 -3 -5 -1 -10 5 -10 6 0 9 -4 6 -9 -4 -5 0 -12 6 -15 9 -3 6 -11 -9 -24 -12 -11 -19 -22 -16 -26 4 -3 1 -6 -6 -6 -7 0 -10 -4 -6 -9 3 -5 -3 -16 -12 -23 -25 -18 -22 -63 6 -92 13 -14 27 -24 30 -22 3 2 15 0 26 -4 13 -5 24 -2 33 9 11 13 12 13 7 1 -4 -8 3 -4 14 10 11 14 21 21 21 15 0 -5 5 -2 11 8 6 9 14 15 20 12 5 -4 9 -1 9 4 0 6 7 11 16 11 9 0 12 -5 8 -12 -4 -7 -3 -8 4 -4 7 4 12 2 12 -4 0 -6 5 -8 10 -5 5 3 10 2 10 -2 0 -5 10 -9 22 -10 11 -1 24 -7 28 -14 4 -6 13 -8 19 -5 19 12 39 -18 34 -49 -5 -21 -3 -26 7 -20 10 6 12 1 7 -24 -5 -23 -3 -30 5 -25 8 5 9 2 5 -9 -4 -11 -1 -17 8 -17 8 0 15 -4 15 -10 0 -18 82 -12 97 8 8 9 11 11 7 3 -5 -9 -3 -12 4 -7 7 4 9 18 6 32 -4 13 -2 24 4 24 6 0 8 8 5 19 -3 10 0 22 6 25 5 4 8 13 4 21 -3 10 1 15 12 15 10 0 13 5 9 12 -5 8 -2 9 9 5 10 -3 17 -3 17 2 0 8 41 24 65 25 6 1 14 7 18 14 12 18 34 15 59 -10 12 -12 29 -23 37 -25 9 -1 20 -8 26 -16 13 -19 42 -8 77 29 34 37 39 68 13 89 -11 9 -13 14 -5 10 8 -4 4 3 -10 15 -14 12 -18 19 -10 15 8 -3 5 2 -7 11 -27 19 -29 39 -7 52 9 5 15 12 14 16 -5 19 13 65 23 59 7 -4 8 0 4 11 -8 20 17 51 33 41 5 -3 10 -1 10 5 0 8 9 10 25 6 16 -4 25 -2 25 5 0 6 8 9 18 7 28 -7 47 23 47 75 0 41 -3 49 -22 54 -13 3 -23 9 -23 13 0 4 -11 5 -25 2 -15 -2 -25 0 -25 8 0 7 -8 9 -20 5 -27 -9 -53 18 -45 46 5 16 4 19 -6 14 -9 -6 -11 -3 -6 8 3 10 2 17 -4 17 -6 0 -7 5 -4 10 3 6 1 10 -5 10 -6 0 -8 5 -5 10 3 6 1 10 -5 10 -6 0 -9 4 -6 9 4 5 0 12 -6 15 -11 5 -11 7 0 12 6 3 10 10 6 15 -3 5 2 12 10 15 9 3 13 10 10 15 -3 5 2 12 10 15 9 3 13 10 10 15 -3 5 1 11 8 14 22 9 14 54 -15 83 -30 29 -75 35 -95 12 -12 -13 -13 -13 -6 0 7 13 6 13 -12 0 -10 -8 -27 -23 -37 -35 -10 -11 -16 -15 -13 -9 3 6 -7 9 -26 8 -39 -3 -60 5 -51 19 4 6 0 8 -11 4 -9 -4 -33 0 -53 8 -31 13 -34 18 -29 41 5 18 3 24 -5 18 -9 -5 -10 0 -5 20 4 17 2 26 -5 26 -6 0 -9 9 -6 19 6 24 -10 31 -75 31 -41 0 -51 -3 -55 -20z m109 -25 c-2 -18 1 -25 9 -20 8 6 9 -1 4 -25 -5 -24 -4 -31 5 -25 8 5 11 -1 8 -21 -3 -25 0 -29 20 -26 12 2 22 -1 22 -7 0 -6 7 -8 15 -5 8 4 15 1 15 -6 0 -6 5 -8 10 -5 6 3 10 2 10 -4 0 -6 7 -8 15 -5 8 4 17 -1 21 -10 3 -9 10 -13 15 -10 5 3 9 1 9 -4 0 -17 34 -8 53 13 10 11 15 13 11 5 -4 -8 7 0 25 18 18 17 37 29 42 26 6 -3 18 0 27 7 9 7 14 9 9 4 -4 -4 3 -20 15 -34 l23 -26 -25 20 c-19 14 -18 12 4 -9 28 -27 29 -29 11 -42 -10 -8 -15 -14 -9 -14 5 0 0 -7 -10 -15 -11 -8 -16 -15 -10 -15 5 0 0 -7 -10 -15 -11 -8 -16 -15 -11 -15 4 0 0 -10 -11 -22 -10 -12 -14 -18 -8 -15 7 4 15 0 18 -9 4 -10 2 -13 -7 -9 -6 4 -4 0 5 -8 10 -8 15 -17 11 -20 -3 -4 -1 -7 6 -7 7 0 9 -4 6 -10 -3 -5 -1 -10 5 -10 7 0 9 -8 5 -21 -5 -16 -4 -19 6 -14 9 6 11 3 6 -8 -3 -10 -2 -17 3 -17 5 0 11 -9 15 -20 5 -15 12 -18 36 -13 19 3 29 1 29 -6 0 -7 5 -9 10 -6 6 4 19 3 28 -1 9 -4 22 -8 27 -8 16 -2 18 -75 2 -91 -8 -8 -17 -11 -21 -8 -3 3 -12 1 -19 -6 -8 -6 -22 -9 -31 -5 -9 4 -16 1 -16 -6 0 -8 -10 -11 -29 -8 -23 3 -27 1 -23 -14 2 -10 -1 -18 -7 -18 -6 0 -8 -7 -4 -17 4 -10 2 -14 -4 -10 -6 4 -10 -4 -10 -19 0 -15 -7 -30 -14 -35 -8 -5 -9 -9 -4 -9 6 0 1 -7 -9 -15 -11 -8 -16 -15 -12 -15 5 0 3 -6 -3 -14 -10 -12 -8 -17 9 -26 11 -6 18 -15 15 -19 -3 -5 2 -12 11 -15 8 -3 13 -10 10 -15 -3 -5 1 -12 10 -15 8 -3 13 -10 10 -15 -4 -5 0 -11 6 -14 9 -3 0 -18 -25 -42 -36 -36 -38 -36 -55 -18 -9 10 -15 14 -12 8 3 -6 -2 -3 -11 7 -9 9 -19 14 -23 11 -3 -4 -6 -1 -6 6 0 7 -4 9 -10 6 -5 -3 -15 3 -22 14 -9 15 -15 17 -25 9 -7 -6 -13 -8 -13 -4 0 3 -9 -3 -21 -15 -11 -11 -26 -18 -32 -16 -7 2 -18 -2 -25 -10 -8 -8 -23 -11 -39 -7 -20 5 -24 4 -18 -6 6 -10 4 -12 -8 -7 -14 5 -15 1 -10 -23 3 -17 1 -30 -4 -30 -6 0 -8 -11 -5 -25 3 -15 0 -25 -8 -25 -6 0 -10 -6 -8 -12 8 -23 -20 -39 -59 -36 -29 2 -38 7 -37 21 1 9 -3 17 -8 17 -6 0 -8 11 -6 25 3 14 1 25 -5 25 -5 0 -7 10 -4 21 7 25 -29 60 -52 51 -10 -4 -12 -1 -6 7 5 10 2 11 -13 7 -15 -5 -27 -1 -38 13 -10 11 -22 17 -27 14 -6 -3 -16 3 -24 13 -13 18 -15 18 -24 1 -6 -9 -14 -15 -19 -12 -4 3 -11 -2 -14 -11 -3 -8 -10 -13 -15 -10 -5 3 -12 -1 -15 -10 -4 -9 -9 -14 -13 -11 -3 4 -12 -1 -18 -10 -12 -16 -15 -14 -41 17 -28 33 -40 70 -23 70 5 0 8 4 6 9 -1 5 7 17 18 26 11 9 13 14 5 10 -8 -4 -3 3 13 15 15 12 27 27 27 33 0 6 -6 3 -13 -7 -12 -16 -13 -15 -11 13 1 17 -2 31 -8 31 -5 0 -6 5 -3 10 3 6 1 10 -5 10 -6 0 -8 5 -5 10 3 6 1 10 -5 10 -6 0 -9 4 -5 9 3 5 1 12 -4 15 -5 3 -7 16 -3 28 3 14 2 19 -6 14 -7 -4 -12 -1 -12 8 0 10 -9 16 -25 16 -14 0 -25 5 -25 10 0 6 -11 8 -25 4 -15 -4 -25 -2 -25 5 0 6 -10 10 -22 8 -21 -2 -23 2 -23 48 0 35 4 49 13 47 6 -1 12 3 12 9 0 7 10 9 25 7 14 -3 25 -1 25 5 0 5 10 7 21 4 22 -6 49 12 49 32 0 6 4 11 10 11 5 0 7 7 4 15 -4 8 -1 15 6 15 6 0 8 5 5 10 -3 6 -2 10 4 10 6 0 8 7 5 15 -4 8 1 17 10 21 9 3 13 10 10 15 -3 5 0 9 6 9 6 0 8 5 5 10 -3 6 -1 10 5 10 6 0 -2 14 -19 31 -17 17 -29 34 -26 39 3 4 -2 11 -11 14 -8 3 -12 10 -9 16 3 5 2 10 -4 10 -16 0 -6 28 18 54 26 27 39 29 59 6 12 -13 13 -13 7 0 -4 8 3 4 15 -10 12 -14 19 -18 15 -10 -4 8 3 4 15 -10 12 -14 19 -18 15 -10 -6 13 -5 13 7 0 14 -16 48 -23 48 -9 0 15 58 39 76 32 13 -5 15 -3 9 7 -6 10 -4 12 8 7 10 -4 17 -2 17 4 0 6 9 9 20 6 11 -3 18 -1 14 4 -3 5 -1 9 5 9 6 0 8 12 5 30 -4 18 -2 30 4 30 5 0 8 10 4 22 -4 15 -2 19 7 13 9 -5 12 -1 11 11 -3 29 -3 29 47 28 46 -2 48 -3 45 -29z m-460 -940 c3 3 11 -1 17 -9 22 -27 -6 -26 -30 2 -13 14 -17 21 -8 14 9 -6 18 -10 21 -7z"/>
<path d="M707 1706 c4 -5 -3 -7 -15 -4 -12 4 -22 2 -22 -4 0 -6 -7 -7 -15 -4 -9 3 -18 -1 -21 -9 -4 -8 -10 -12 -15 -9 -5 3 -9 0 -9 -5 0 -6 -3 -10 -7 -9 -5 1 -28 -18 -53 -42 -25 -24 -38 -41 -30 -36 8 4 4 -1 -9 -12 -13 -11 -21 -24 -17 -31 4 -6 4 -11 -1 -11 -4 0 -9 -14 -10 -32 -1 -17 -6 -34 -10 -37 -11 -9 -11 -111 0 -111 5 0 7 -9 4 -20 -3 -11 -1 -20 5 -20 6 0 8 -7 4 -15 -3 -8 -1 -15 5 -15 6 0 7 -4 4 -10 -3 -5 -1 -10 6 -10 7 0 9 -3 6 -7 -4 -3 2 -13 13 -20 11 -8 18 -18 15 -22 -2 -5 7 -19 22 -32 14 -13 23 -17 19 -9 -4 8 1 6 11 -6 10 -11 20 -20 23 -21 20 -2 50 -16 50 -23 0 -5 7 -7 15 -4 8 4 15 2 15 -4 0 -5 11 -7 25 -4 15 2 25 0 25 -7 0 -6 16 -11 35 -11 19 0 35 5 35 11 0 7 11 9 30 5 21 -4 29 -2 24 5 -4 8 1 9 16 4 15 -5 20 -3 16 3 -6 10 30 28 47 24 5 -1 6 2 3 7 -5 8 11 20 25 17 11 -2 39 26 34 35 -3 4 6 16 20 25 13 9 23 20 20 24 -8 13 6 40 17 34 6 -4 8 2 3 15 -4 12 -2 21 4 21 6 0 8 7 5 15 -3 8 -2 20 2 27 12 20 14 88 2 88 -6 0 -8 9 -5 20 3 11 1 23 -4 26 -5 3 -7 10 -4 15 4 5 1 9 -5 9 -7 0 -10 7 -6 15 3 8 1 15 -5 15 -6 0 -7 5 -3 12 5 7 3 8 -6 3 -10 -6 -12 -4 -7 7 5 16 -60 84 -76 80 -4 -1 -10 5 -13 13 -3 8 -10 12 -15 9 -5 -3 -9 0 -9 6 0 6 -4 8 -10 5 -5 -3 -10 -2 -10 3 0 6 -6 10 -12 9 -30 -1 -49 4 -44 11 2 4 -29 8 -69 8 -43 0 -71 -4 -68 -10z m123 -13 c0 -5 12 -9 27 -10 15 0 29 -6 31 -12 2 -6 8 -9 13 -5 5 3 9 0 9 -5 0 -6 4 -10 9 -8 5 1 17 -7 26 -18 9 -11 13 -13 9 -5 -4 8 6 3 23 -13 16 -15 32 -25 35 -21 3 3 9 1 12 -4 7 -12 -11 -10 -34 2 -8 4 -4 -2 9 -13 13 -12 20 -21 17 -21 -3 0 3 -9 15 -21 11 -11 18 -27 15 -35 -3 -8 0 -14 5 -14 7 0 9 -11 7 -25 -3 -14 -1 -25 3 -25 12 0 12 -57 0 -64 -4 -3 -6 -17 -3 -31 2 -15 0 -25 -7 -25 -7 0 -9 -4 -6 -10 3 -5 1 -10 -5 -10 -6 0 -8 -4 -5 -10 3 -5 1 -10 -5 -10 -6 0 -8 -4 -5 -10 3 -5 1 -10 -4 -10 -6 0 -10 -3 -9 -8 4 -10 -74 -88 -84 -84 -5 1 -8 -3 -8 -9 0 -5 -4 -7 -10 -4 -5 3 -10 2 -10 -4 0 -6 -7 -7 -17 -4 -10 4 -14 2 -10 -4 5 -7 -1 -9 -15 -5 -16 4 -19 2 -13 -8 6 -10 2 -11 -19 -6 -15 4 -26 2 -26 -4 0 -5 -11 -10 -25 -10 -14 0 -25 5 -25 11 0 7 -10 9 -24 5 -14 -3 -27 -2 -31 4 -3 5 -12 7 -20 4 -8 -3 -26 7 -41 23 -15 15 -24 22 -19 15 4 -8 -18 11 -49 42 -39 39 -54 61 -49 73 5 12 3 14 -7 8 -10 -6 -12 -4 -7 8 4 10 2 17 -4 17 -6 0 -9 7 -5 15 3 8 1 15 -4 15 -6 0 -10 25 -10 55 0 30 4 55 9 55 5 0 7 8 4 19 -2 10 3 25 12 35 9 9 13 16 9 16 -4 0 1 7 12 16 10 8 12 13 4 9 -8 -4 -6 1 4 9 11 9 16 16 11 16 -5 0 2 11 15 25 12 13 26 22 31 20 4 -3 11 0 15 6 4 7 3 9 -3 6 -5 -3 -10 0 -10 7 0 8 10 12 24 10 13 -1 23 3 23 9 0 5 3 8 6 4 4 -3 13 1 22 9 8 9 23 13 33 11 11 -3 19 -1 19 4 0 5 25 9 55 9 30 0 55 -3 55 -7z m-259 -490 c12 -16 12 -17 -2 -6 -9 7 -20 9 -24 5 -5 -4 -5 -1 -1 6 9 16 11 15 27 -5z m429 -7 c0 -3 -5 -8 -12 -12 -7 -4 -8 -3 -4 4 7 12 16 16 16 8z"/>
<path d="M760 1539 c0 -6 -9 -9 -20 -6 -11 3 -20 0 -20 -6 0 -6 -2 -8 -6 -5 -7 7 -61 -45 -56 -54 2 -5 -1 -8 -6 -8 -13 0 -9 -93 6 -108 7 -8 11 -17 9 -20 -5 -9 25 -36 44 -40 8 -2 15 -7 16 -10 2 -4 28 -7 59 -6 48 1 60 5 86 31 27 27 31 38 32 91 0 33 -1 59 -4 57 -3 -2 -16 14 -29 36 -14 21 -28 36 -33 33 -4 -3 -8 -1 -8 5 0 6 -6 8 -14 5 -8 -3 -17 -1 -21 5 -8 14 -35 14 -35 0z m90 -44 c11 -10 17 -22 14 -26 -3 -5 -1 -9 5 -9 6 0 7 -7 4 -17 -4 -11 -3 -14 5 -9 8 5 12 -3 12 -27 0 -47 -58 -107 -112 -114 -26 -4 -38 -2 -38 6 0 7 -4 9 -10 6 -5 -3 -10 -1 -10 5 0 6 -4 9 -9 6 -5 -3 -14 1 -21 9 -7 8 -9 15 -4 15 5 0 3 4 -4 9 -16 9 -23 101 -9 101 6 0 7 3 4 7 -9 9 33 54 44 47 5 -3 9 -1 9 3 0 17 100 6 120 -12z m40 -159 c0 -3 -5 -8 -12 -12 -7 -4 -8 -3 -4 4 7 12 16 16 16 8z m-30 -30 c0 -3 -5 -8 -12 -12 -7 -4 -8 -3 -4 4 7 12 16 16 16 8z"/>
<path d="M365 990 c3 -5 8 -10 11 -10 3 0 2 5 -1 10 -3 6 -8 10 -11 10 -3 0 -2 -4 1 -10z"/>
<path d="M1608 1209 c-10 -10 -18 -21 -18 -24 0 -3 0 -12 0 -21 0 -9 -5 -12 -12 -8 -8 5 -9 2 -5 -9 3 -10 2 -17 -4 -17 -6 0 -8 -4 -4 -10 9 -15 -35 -52 -55 -47 -11 3 -21 0 -23 -7 -3 -6 -29 12 -58 40 -68 65 -87 72 -112 42 -10 -13 -15 -16 -11 -8 4 8 -5 2 -20 -14 -18 -19 -25 -34 -20 -45 4 -9 6 -19 6 -23 -1 -5 3 -8 9 -8 5 0 7 -4 4 -10 -3 -5 -1 -10 5 -10 7 0 10 -7 6 -15 -3 -8 -1 -15 5 -15 6 0 7 -4 4 -10 -3 -5 -1 -10 4 -10 19 0 12 -29 -9 -40 -11 -6 -17 -16 -14 -25 8 -19 -30 -28 -99 -23 -54 3 -77 -7 -69 -30 2 -6 -1 -12 -7 -12 -7 0 -9 -10 -5 -25 4 -17 2 -25 -6 -25 -9 0 -10 -3 -1 -13 6 -8 7 -18 3 -22 -4 -5 -2 -5 5 -2 6 4 18 1 26 -7 8 -8 17 -12 21 -9 3 4 6 1 6 -6 0 -7 4 -10 9 -7 14 9 42 -5 34 -17 -4 -6 0 -8 10 -4 11 4 17 1 17 -9 0 -9 5 -12 12 -8 8 5 9 -2 5 -25 -4 -20 -3 -30 3 -26 6 3 10 3 10 -1 0 -11 -98 -112 -104 -107 -3 3 -4 -4 -3 -16 1 -11 5 -21 10 -21 4 0 6 -4 3 -9 -3 -5 1 -12 10 -15 8 -3 13 -9 11 -13 -6 -11 26 -38 46 -39 9 -1 17 3 17 8 0 5 6 8 12 6 7 -3 19 2 27 9 7 8 20 12 27 9 8 -3 14 -1 14 5 0 6 4 8 9 5 5 -4 11 -1 13 6 3 9 10 8 26 -4 12 -8 20 -18 17 -21 -3 -4 -2 -5 1 -2 4 2 13 -3 21 -11 11 -10 14 -32 11 -78 -3 -56 0 -66 17 -77 11 -7 28 -12 39 -10 11 2 16 -2 11 -9 -5 -7 2 -10 22 -8 30 3 54 18 46 30 -2 5 0 8 4 8 5 0 10 10 10 22 1 13 7 24 13 26 5 2 8 8 4 13 -3 5 -1 9 5 9 6 0 8 7 5 15 -4 10 0 15 15 15 12 0 21 5 21 10 0 14 33 13 48 -2 7 -7 12 -8 12 -3 0 5 19 -9 43 -32 40 -40 88 -59 95 -38 4 11 32 29 46 30 12 0 15 55 3 55 -5 0 -7 6 -5 12 3 7 -2 19 -9 27 -8 7 -12 20 -9 28 3 8 1 11 -4 8 -12 -8 -12 -3 -1 27 5 13 9 27 9 31 0 5 9 15 19 24 10 8 12 11 4 7 -10 -5 -12 -3 -7 5 5 8 33 12 84 10 53 -1 76 2 74 10 -1 6 2 11 7 11 5 0 7 10 3 22 -3 14 -1 19 6 14 7 -4 10 6 9 29 -1 21 -7 35 -15 35 -7 0 -10 4 -7 10 3 6 -1 7 -9 4 -9 -3 -16 -1 -16 6 0 6 -4 8 -10 5 -5 -3 -10 -1 -10 5 0 6 -4 9 -9 6 -13 -9 -42 4 -35 16 3 5 -2 8 -12 6 -16 -2 -18 2 -16 26 3 18 0 26 -7 22 -28 -18 -6 23 36 66 47 48 64 102 35 113 -7 3 -11 9 -8 14 3 5 -1 12 -10 15 -8 3 -12 11 -8 17 4 8 3 9 -4 5 -7 -4 -12 -2 -12 3 0 6 -7 11 -15 11 -8 0 -15 -5 -15 -11 0 -6 -7 -9 -15 -5 -8 3 -15 1 -15 -5 0 -6 -4 -7 -10 -4 -5 3 -10 1 -10 -5 0 -7 -7 -10 -15 -6 -8 3 -15 1 -15 -5 0 -6 -4 -8 -9 -5 -5 4 -11 0 -14 -6 -3 -9 -10 -7 -22 7 -9 11 -14 13 -10 5 4 -8 -1 -6 -9 4 -9 11 -16 16 -16 12 0 -4 -7 0 -16 8 -11 12 -15 34 -13 88 2 63 0 73 -15 70 -9 -2 -16 2 -16 8 0 6 -10 8 -25 4 -15 -4 -25 -2 -25 5 0 17 -23 12 -42 -10z m56 -16 c35 14 51 -11 48 -69 -4 -57 4 -111 15 -100 3 3 12 -2 20 -12 10 -11 12 -12 8 -2 -4 8 3 4 15 -10 12 -14 19 -18 15 -10 -4 8 1 6 9 -4 9 -11 16 -14 16 -7 0 7 5 9 10 6 6 -3 10 -2 10 4 0 6 7 7 17 4 10 -4 14 -2 10 4 -9 14 18 24 40 16 10 -4 14 -2 10 4 -13 21 24 22 46 1 12 -11 15 -18 7 -14 -8 4 -4 -1 9 -12 l25 -20 -57 -59 c-51 -54 -76 -96 -45 -77 8 5 9 0 6 -14 -4 -12 -2 -22 3 -22 5 0 9 -11 9 -25 0 -16 6 -25 15 -25 8 0 15 -5 15 -10 0 -6 3 -9 8 -9 24 4 42 -2 36 -13 -5 -8 -2 -9 10 -5 22 9 56 -13 56 -35 0 -10 -4 -18 -9 -18 -4 0 -6 -11 -4 -24 3 -13 1 -26 -4 -29 -5 -3 -46 -7 -91 -8 -45 -1 -79 -6 -76 -10 3 -5 0 -9 -7 -9 -7 0 -9 -3 -6 -7 4 -3 -1 -11 -10 -18 -18 -13 -26 -55 -11 -55 5 0 6 -4 3 -10 -3 -5 -1 -10 5 -10 7 0 10 -7 6 -15 -3 -8 0 -15 6 -15 6 0 9 -3 5 -6 -3 -4 0 -13 8 -21 21 -20 19 -26 -15 -63 -26 -28 -32 -31 -47 -19 -14 12 -16 12 -8 -1 4 -8 -15 7 -43 34 -28 27 -49 52 -47 56 2 4 -2 7 -10 7 -8 0 -15 -5 -15 -10 0 -5 -9 -7 -20 -4 -11 3 -20 2 -20 -3 0 -4 -13 -10 -30 -13 -21 -5 -28 -11 -24 -22 3 -8 1 -15 -6 -15 -6 0 -8 -5 -5 -10 3 -6 2 -10 -4 -10 -6 0 -8 -6 -5 -14 3 -7 -2 -16 -11 -20 -10 -4 -15 -12 -11 -21 3 -10 -1 -18 -11 -22 -9 -4 -18 -2 -20 4 -2 6 -13 9 -23 6 -36 -9 -50 19 -50 102 0 48 -4 74 -10 70 -5 -3 -20 4 -33 17 -25 24 -57 33 -57 16 0 -5 -4 -6 -10 -3 -5 3 -10 1 -10 -5 0 -7 -7 -10 -15 -6 -8 3 -15 1 -15 -5 0 -6 -4 -7 -10 -4 -5 3 -10 2 -10 -4 0 -16 -40 -24 -55 -11 -8 7 -13 16 -10 20 3 4 -2 11 -11 14 -8 3 -13 10 -10 15 4 5 1 11 -6 13 -6 2 13 31 45 66 31 34 57 69 57 78 0 8 -5 12 -11 8 -7 -4 -9 2 -7 17 2 13 -5 33 -15 44 -18 20 -23 21 -60 24 -11 1 -15 6 -11 12 4 7 0 9 -14 5 -23 -8 -27 -4 -37 43 -5 25 -4 32 5 26 8 -5 11 0 8 16 -3 23 0 24 70 27 56 2 77 7 92 22 11 11 17 20 13 20 -5 1 3 10 17 22 16 14 21 22 12 25 -6 3 -10 9 -6 14 3 5 0 9 -6 9 -6 0 -8 5 -5 10 3 6 1 10 -5 10 -7 0 -9 7 -6 16 4 10 2 13 -6 8 -8 -5 -9 -2 -5 9 3 10 2 17 -2 17 -5 0 -12 7 -15 16 -7 18 11 47 24 39 4 -3 11 2 14 11 3 8 10 13 15 10 5 -4 11 0 14 6 3 8 21 -4 48 -33 51 -53 85 -74 94 -59 4 6 14 10 23 9 26 -2 62 12 56 22 -3 5 -1 9 5 9 6 0 7 7 4 17 -4 11 -3 14 5 9 8 -5 10 -2 6 8 -3 9 -1 16 5 16 6 0 8 7 5 15 -4 8 -1 15 7 15 7 0 10 3 6 6 -3 3 0 12 6 19 8 8 14 9 18 2 4 -5 14 -7 23 -4z m311 -283 c-15 -16 -33 -28 -39 -27 -6 1 -10 -3 -9 -9 1 -6 -5 -11 -13 -11 -10 0 -6 9 12 28 15 16 30 26 34 24 4 -3 13 2 20 10 7 8 15 15 18 15 3 0 -7 -13 -23 -30z m-110 -369 c-9 -8 -36 -10 -30 -2 2 4 11 8 20 8 8 0 13 -3 10 -6z"/>
<path d="M1518 966 c3 -5 -2 -7 -11 -3 -10 3 -17 2 -17 -4 0 -6 -5 -7 -12 -3 -6 4 -17 -1 -25 -11 -7 -11 -13 -15 -13 -10 0 4 -9 0 -20 -10 -11 -10 -17 -21 -15 -26 3 -4 -4 -14 -15 -22 -11 -7 -17 -17 -13 -20 3 -4 1 -7 -6 -7 -7 0 -9 -4 -6 -10 3 -5 1 -10 -5 -10 -6 0 -8 -4 -5 -10 3 -5 3 -15 0 -20 -11 -17 -11 -129 -1 -122 5 3 7 -2 3 -11 -3 -10 -2 -17 3 -17 5 0 7 -6 4 -14 -3 -8 4 -19 16 -26 12 -6 19 -14 16 -18 -8 -8 45 -63 55 -57 9 6 59 -15 59 -24 0 -3 32 -6 70 -6 39 0 70 4 70 9 0 4 7 6 15 2 8 -3 15 -1 15 5 0 6 5 7 10 4 6 -3 10 -1 10 5 0 6 3 10 8 8 9 -5 81 70 74 77 -3 3 0 5 7 5 7 0 9 5 6 10 -3 6 -2 10 4 10 6 0 8 7 5 15 -4 8 -2 15 4 15 5 0 7 11 4 25 -2 15 0 25 7 25 14 0 14 37 0 46 -6 3 -9 15 -6 25 3 11 1 19 -5 19 -6 0 -8 7 -4 15 3 8 1 15 -5 15 -6 0 -8 4 -5 9 3 5 -1 12 -10 15 -8 3 -14 9 -12 13 2 5 -9 20 -24 35 -15 15 -28 24 -28 20 0 -4 -6 0 -13 8 -7 8 -23 16 -37 18 -13 1 -27 6 -30 10 -8 11 -129 9 -122 -2z m117 -16 c3 -5 12 -7 20 -4 7 3 23 -4 34 -15 12 -12 21 -18 21 -14 0 3 11 -4 25 -17 14 -13 23 -26 20 -28 -3 -3 3 -11 13 -19 11 -10 12 -12 2 -8 -10 4 -9 1 3 -8 11 -9 15 -21 10 -32 -5 -13 -3 -16 6 -10 10 5 11 2 6 -14 -4 -12 -2 -21 4 -21 6 0 11 -9 11 -20 0 -11 -5 -20 -10 -20 -6 0 -8 -10 -4 -24 3 -14 0 -29 -10 -38 -8 -9 -12 -18 -9 -22 4 -3 0 -6 -7 -6 -7 0 -10 -3 -6 -7 8 -9 -55 -74 -66 -67 -4 3 -8 0 -8 -6 0 -6 -4 -8 -10 -5 -5 3 -10 1 -10 -5 0 -7 -8 -9 -21 -5 -12 4 -19 3 -16 -2 3 -4 -21 -8 -54 -8 -32 0 -59 3 -59 7 0 4 -7 5 -15 2 -14 -6 -111 83 -107 99 1 4 -2 7 -8 7 -5 0 -6 7 -3 17 5 12 3 14 -7 8 -10 -6 -12 -4 -7 8 3 10 2 17 -3 17 -6 0 -10 23 -10 50 0 28 4 50 10 50 5 0 6 7 3 17 -5 12 -3 14 7 8 10 -6 12 -4 7 8 -3 10 -2 17 3 17 6 0 9 4 8 8 -2 4 15 25 37 47 21 22 36 33 31 25 -4 -8 -1 -7 7 2 8 10 17 15 20 11 4 -3 7 -1 7 6 0 8 7 10 21 6 15 -5 19 -4 15 4 -5 7 9 11 43 11 27 0 52 -4 56 -10z m-195 -24 c0 -2 -8 -10 -17 -17 -16 -13 -17 -12 -4 4 13 16 21 21 21 13z m-9 -343 c12 -16 12 -17 -2 -6 -9 7 -20 9 -24 5 -5 -4 -5 -1 -1 6 9 16 11 15 27 -5z m14 -33 c3 -5 4 -10 1 -10 -3 0 -8 5 -11 10 -3 6 -4 10 -1 10 3 0 8 -4 11 -10z"/>
<path d="M1560 871 c0 -8 -47 -26 -62 -23 -13 3 -31 -30 -35 -61 -2 -17 -8 -34 -13 -37 -6 -4 -3 -21 9 -46 11 -21 17 -42 15 -45 -2 -4 6 -15 18 -25 15 -13 19 -14 14 -4 -6 12 -5 12 6 -1 7 -9 19 -14 27 -11 8 3 11 0 7 -7 -5 -7 8 -11 40 -11 26 0 44 3 41 7 -4 3 7 15 23 25 17 10 35 29 42 43 6 13 14 23 18 20 3 -2 6 18 6 45 0 27 -3 47 -8 44 -7 -4 -12 11 -6 19 5 5 -48 53 -54 50 -5 -2 -8 0 -8 6 0 6 -7 7 -17 4 -11 -4 -14 -3 -9 5 5 8 -3 12 -23 12 -17 0 -31 -4 -31 -9z m40 -21 c0 -5 7 -7 15 -4 8 4 15 1 15 -7 0 -7 3 -9 7 -6 9 9 44 -23 37 -34 -3 -5 -1 -9 5 -9 6 0 7 -7 4 -17 -4 -11 -3 -14 5 -9 8 5 12 -3 12 -24 0 -21 -4 -29 -12 -24 -8 5 -9 2 -5 -9 4 -10 1 -17 -5 -17 -6 0 -8 -3 -5 -7 9 -9 -23 -44 -34 -37 -5 3 -9 0 -9 -6 0 -6 -4 -8 -10 -5 -5 3 -10 1 -10 -4 0 -14 -47 -14 -55 -1 -4 6 -10 8 -15 5 -5 -3 -13 3 -19 12 -5 10 -12 17 -15 16 -3 -2 -6 0 -5 3 0 3 -7 11 -17 18 -10 8 -14 18 -10 25 4 6 2 18 -4 26 -8 10 -9 15 -2 15 6 0 9 7 6 15 -4 8 -1 15 7 15 7 0 10 2 7 5 -9 9 50 67 61 61 5 -4 12 -2 16 4 8 13 35 13 35 0z m-103 -23 c0 -8 -6 -14 -14 -14 -9 0 -10 4 -2 14 6 7 12 13 14 13 1 0 2 -6 2 -13z"/>
<path d="M1944 898 c-4 -7 -3 -8 4 -4 12 7 16 16 8 16 -3 0 -8 -5 -12 -12z"/>
</g>
<g id="layer104" fill="#ffffff" stroke="none">
<path d="M1591 1994 c0 -11 3 -14 6 -6 3 7 2 16 -1 19 -3 4 -6 -2 -5 -13z"/>
<path d="M821 1934 c0 -11 3 -14 6 -6 3 7 2 16 -1 19 -3 4 -6 -2 -5 -13z"/>
<path d="M1834 1938 c-4 -7 -3 -8 4 -4 7 4 12 9 12 12 0 8 -9 4 -16 -8z"/>
<path d="M1606 1893 c-6 -14 -5 -15 5 -6 7 7 10 15 7 18 -3 3 -9 -2 -12 -12z"/>
<path d="M1473 1873 c4 -3 10 -3 14 0 3 4 0 7 -7 7 -7 0 -10 -3 -7 -7z"/>
<path d="M1900 1850 c0 -7 3 -10 7 -7 3 4 3 10 0 14 -4 3 -7 0 -7 -7z"/>
<path d="M1750 1756 c0 -2 8 -10 18 -17 15 -13 16 -12 3 4 -13 16 -21 21 -21 13z"/>
<path d="M1943 1753 c4 -3 10 -3 14 0 3 4 0 7 -7 7 -7 0 -10 -3 -7 -7z"/>
<path d="M1745 1720 c3 -5 8 -10 11 -10 3 0 2 5 -1 10 -3 6 -8 10 -11 10 -3 0 -2 -4 1 -10z"/>
<path d="M2054 1678 c-4 -7 -3 -8 4 -4 7 4 12 9 12 12 0 8 -9 4 -16 -8z"/>
<path d="M1740 1550 c-9 -6 -10 -10 -3 -10 6 0 15 5 18 10 8 12 4 12 -15 0z"/>
<path d="M1945 1530 c3 -5 8 -10 11 -10 3 0 2 5 -1 10 -3 6 -8 10 -11 10 -3 0 -2 -4 1 -10z"/>
<path d="M763 1513 c9 -2 23 -2 30 0 6 3 -1 5 -18 5 -16 0 -22 -2 -12 -5z"/>
<path d="M1925 1510 c3 -5 8 -10 11 -10 3 0 2 5 -1 10 -3 6 -8 10 -11 10 -3 0 -2 -4 1 -10z"/>
<path d="M900 1450 c0 -7 3 -10 7 -7 3 4 3 10 0 14 -4 3 -7 0 -7 -7z"/>
<path d="M1080 1440 c0 -7 3 -10 7 -7 3 4 3 10 0 14 -4 3 -7 0 -7 -7z"/>
<path d="M662 1410 c0 -14 2 -19 5 -12 2 6 2 18 0 25 -3 6 -5 1 -5 -13z"/>
<path d="M1903 1423 c4 -3 10 -3 14 0 3 4 0 7 -7 7 -7 0 -10 -3 -7 -7z"/>
<path d="M1613 1413 c4 -3 10 -3 14 0 3 4 0 7 -7 7 -7 0 -10 -3 -7 -7z"/>
<path d="M1781 1364 c0 -11 3 -14 6 -6 3 7 2 16 -1 19 -3 4 -6 -2 -5 -13z"/>
<path d="M460 1360 c0 -7 3 -10 7 -7 3 4 3 10 0 14 -4 3 -7 0 -7 -7z"/>
<path d="M1710 1340 c0 -7 3 -10 7 -7 3 4 3 10 0 14 -4 3 -7 0 -7 -7z"/>
<path d="M844 1328 c-4 -7 -3 -8 4 -4 7 4 12 9 12 12 0 8 -9 4 -16 -8z"/>
<path d="M570 1205 c13 -14 26 -25 28 -25 3 0 -5 11 -18 25 -13 14 -26 25 -28 25 -3 0 5 -11 18 -25z"/>
<path d="M1643 1193 c4 -3 10 -3 14 0 3 4 0 7 -7 7 -7 0 -10 -3 -7 -7z"/>
<path d="M565 1170 c3 -5 8 -10 11 -10 3 0 2 5 -1 10 -3 6 -8 10 -11 10 -3 0 -2 -4 1 -10z"/>
<path d="M733 1123 c4 -3 10 -3 14 0 3 4 0 7 -7 7 -7 0 -10 -3 -7 -7z"/>
<path d="M1713 1085 c0 -22 2 -30 4 -17 2 12 2 30 0 40 -3 9 -5 -1 -4 -23z"/>
<path d="M1261 1094 c0 -11 3 -14 6 -6 3 7 2 16 -1 19 -3 4 -6 -2 -5 -13z"/>
<path d="M1893 1013 c4 -3 10 -3 14 0 3 4 0 7 -7 7 -7 0 -10 -3 -7 -7z"/>
<path d="M370 1006 c0 -2 8 -10 18 -17 15 -13 16 -12 3 4 -13 16 -21 21 -21 13z"/>
<path d="M1975 972 c5 -9 -8 -30 -36 -60 l-44 -47 50 47 c41 40 47 50 36 60 -11 11 -13 10 -6 0z"/>
<path d="M1454 948 c-4 -7 -3 -8 4 -4 12 7 16 16 8 16 -3 0 -8 -5 -12 -12z"/>
<path d="M1960 895 c-24 -25 -42 -45 -39 -45 3 0 25 20 49 45 24 25 42 45 39 45 -3 0 -25 -20 -49 -45z"/>
<path d="M681 914 c0 -11 3 -14 6 -6 3 7 2 16 -1 19 -3 4 -6 -2 -5 -13z"/>
<path d="M1464 918 c-4 -7 -3 -8 4 -4 7 4 12 9 12 12 0 8 -9 4 -16 -8z"/>
<path d="M1424 888 c-4 -7 -3 -8 4 -4 12 7 16 16 8 16 -3 0 -8 -5 -12 -12z"/>
<path d="M1573 873 c9 -2 25 -2 35 0 9 3 1 5 -18 5 -19 0 -27 -2 -17 -5z"/>
<path d="M1474 828 l-19 -23 23 19 c12 11 22 21 22 23 0 8 -8 2 -26 -19z"/>
<path d="M1380 820 c0 -7 3 -10 7 -7 3 4 3 10 0 14 -4 3 -7 0 -7 -7z"/>
<path d="M1921 804 c0 -11 3 -14 6 -6 3 7 2 16 -1 19 -3 4 -6 -2 -5 -13z"/>
<path d="M1120 790 c0 -7 3 -10 7 -7 3 4 3 10 0 14 -4 3 -7 0 -7 -7z"/>
<path d="M1163 763 c4 -3 10 -3 14 0 3 4 0 7 -7 7 -7 0 -10 -3 -7 -7z"/>
<path d="M1790 710 c0 -7 3 -10 7 -7 3 4 3 10 0 14 -4 3 -7 0 -7 -7z"/>
<path d="M1425 590 c10 -11 20 -20 23 -20 3 0 -3 9 -13 20 -10 11 -20 20 -23 20 -3 0 3 -9 13 -20z"/>
<path d="M1548 603 c7 -3 16 -2 19 1 4 3 -2 6 -13 5 -11 0 -14 -3 -6 -6z"/>
<path d="M1395 580 c3 -5 8 -10 11 -10 3 0 2 5 -1 10 -3 6 -8 10 -11 10 -3 0 -2 -4 1 -10z"/>
<path d="M1420 556 c0 -2 8 -10 18 -17 15 -13 16 -12 3 4 -13 16 -21 21 -21 13z"/>
<path d="M1573 523 c9 -2 23 -2 30 0 6 3 -1 5 -18 5 -16 0 -22 -2 -12 -5z"/>
<path d="M1850 510 c0 -7 3 -10 7 -7 3 4 3 10 0 14 -4 3 -7 0 -7 -7z"/>
<path d="M1623 393 c4 -3 10 -3 14 0 3 4 0 7 -7 7 -7 0 -10 -3 -7 -7z"/>
<path d="M1795 340 c3 -5 8 -10 11 -10 3 0 2 5 -1 10 -3 6 -8 10 -11 10 -3 0 -2 -4 1 -10z"/>
</g>
<g id="layer105" fill="#ffffff" stroke="none">
<path d="M1650 1980 c0 -7 3 -10 7 -7 3 4 3 10 0 14 -4 3 -7 0 -7 -7z"/>
<path d="M1423 1893 c4 -3 10 -3 14 0 3 4 0 7 -7 7 -7 0 -10 -3 -7 -7z"/>
<path d="M1793 1873 c4 -3 10 -3 14 0 3 4 0 7 -7 7 -7 0 -10 -3 -7 -7z"/>
<path d="M700 1850 c0 -7 3 -10 7 -7 3 4 3 10 0 14 -4 3 -7 0 -7 -7z"/>
<path d="M1405 1840 c3 -5 8 -10 11 -10 3 0 2 5 -1 10 -3 6 -8 10 -11 10 -3 0 -2 -4 1 -10z"/>
<path d="M845 1830 c3 -5 8 -10 11 -10 3 0 2 5 -1 10 -3 6 -8 10 -11 10 -3 0 -2 -4 1 -10z"/>
<path d="M1140 1837 c0 -2 15 -16 33 -33 l32 -29 -29 33 c-28 30 -36 37 -36 29z"/>
<path d="M425 1820 c3 -5 8 -10 11 -10 3 0 2 5 -1 10 -3 6 -8 10 -11 10 -3 0 -2 -4 1 -10z"/>
<path d="M623 1803 c4 -3 10 -3 14 0 3 4 0 7 -7 7 -7 0 -10 -3 -7 -7z"/>
<path d="M485 1780 c3 -5 8 -10 11 -10 3 0 2 5 -1 10 -3 6 -8 10 -11 10 -3 0 -2 -4 1 -10z"/>
<path d="M1456 1777 c3 -10 9 -15 12 -12 3 3 0 11 -7 18 -10 9 -11 8 -5 -6z"/>
<path d="M1928 1723 c6 -2 18 -2 25 0 6 3 1 5 -13 5 -14 0 -19 -2 -12 -5z"/>
<path d="M708 1713 c7 -3 16 -2 19 1 4 3 -2 6 -13 5 -11 0 -14 -3 -6 -6z"/>
<path d="M828 1713 c7 -3 16 -2 19 1 4 3 -2 6 -13 5 -11 0 -14 -3 -6 -6z"/>
<path d="M2013 1653 c4 -3 10 -3 14 0 3 4 0 7 -7 7 -7 0 -10 -3 -7 -7z"/>
<path d="M1314 1628 c-4 -7 -3 -8 4 -4 12 7 16 16 8 16 -3 0 -8 -5 -12 -12z"/>
<path d="M1383 1583 c4 -3 10 -3 14 0 3 4 0 7 -7 7 -7 0 -10 -3 -7 -7z"/>
<path d="M1200 1550 c0 -7 3 -10 7 -7 3 4 3 10 0 14 -4 3 -7 0 -7 -7z"/>
<path d="M1403 1553 c4 -3 10 -3 14 0 3 4 0 7 -7 7 -7 0 -10 -3 -7 -7z"/>
<path d="M1744 1548 c-4 -7 -3 -8 4 -4 12 7 16 16 8 16 -3 0 -8 -5 -12 -12z"/>
<path d="M768 1543 c7 -3 16 -2 19 1 4 3 -2 6 -13 5 -11 0 -14 -3 -6 -6z"/>
<path d="M758 1513 c6 -2 18 -2 25 0 6 3 1 5 -13 5 -14 0 -19 -2 -12 -5z"/>
<path d="M1490 1496 c0 -2 8 -10 18 -17 15 -13 16 -12 3 4 -13 16 -21 21 -21 13z"/>
<path d="M1213 1473 c4 -3 10 -3 14 0 3 4 0 7 -7 7 -7 0 -10 -3 -7 -7z"/>
<path d="M1970 1450 c0 -7 3 -10 7 -7 3 4 3 10 0 14 -4 3 -7 0 -7 -7z"/>
<path d="M661 1404 c0 -11 3 -14 6 -6 3 7 2 16 -1 19 -3 4 -6 -2 -5 -13z"/>
<path d="M1440 1380 c0 -7 3 -10 7 -7 3 4 3 10 0 14 -4 3 -7 0 -7 -7z"/>
<path d="M330 1290 c0 -7 3 -10 7 -7 3 4 3 10 0 14 -4 3 -7 0 -7 -7z"/>
<path d="M1060 1290 c0 -7 3 -10 7 -7 3 4 3 10 0 14 -4 3 -7 0 -7 -7z"/>
<path d="M813 1273 c4 -3 10 -3 14 0 3 4 0 7 -7 7 -7 0 -10 -3 -7 -7z"/>
<path d="M565 1210 c10 -11 20 -20 23 -20 3 0 -3 9 -13 20 -10 11 -20 20 -23 20 -3 0 3 -9 13 -20z"/>
<path d="M1725 1200 c3 -5 8 -10 11 -10 3 0 2 5 -1 10 -3 6 -8 10 -11 10 -3 0 -2 -4 1 -10z"/>
<path d="M1324 1158 c-4 -7 -3 -8 4 -4 12 7 16 16 8 16 -3 0 -8 -5 -12 -12z"/>
<path d="M1195 1100 c3 -5 8 -10 11 -10 3 0 2 5 -1 10 -3 6 -8 10 -11 10 -3 0 -2 -4 1 -10z"/>
<path d="M320 1017 c0 -2 15 -16 33 -33 l32 -29 -29 33 c-28 30 -36 37 -36 29z"/>
<path d="M1955 1000 c3 -5 8 -10 11 -10 3 0 2 5 -1 10 -3 6 -8 10 -11 10 -3 0 -2 -4 1 -10z"/>
<path d="M444 968 c-4 -7 -3 -8 4 -4 12 7 16 16 8 16 -3 0 -8 -5 -12 -12z"/>
<path d="M1975 970 c3 -5 8 -10 11 -10 3 0 2 5 -1 10 -3 6 -8 10 -11 10 -3 0 -2 -4 1 -10z"/>
<path d="M1284 928 c-4 -7 -3 -8 4 -4 7 4 12 9 12 12 0 8 -9 4 -16 -8z"/>
<path d="M1974 908 l-29 -33 33 29 c30 28 37 36 29 36 -2 0 -16 -15 -33 -32z"/>
<path d="M1944 918 c-4 -7 -3 -8 4 -4 12 7 16 16 8 16 -3 0 -8 -5 -12 -12z"/>
<path d="M1909 883 c-13 -16 -12 -17 4 -4 16 13 21 21 13 21 -2 0 -10 -8 -17 -17z"/>
<path d="M1133 855 c-3 -9 -3 -18 -1 -21 3 -3 8 4 11 16 6 23 -1 27 -10 5z"/>
<path d="M1924 858 c-4 -7 -3 -8 4 -4 12 7 16 16 8 16 -3 0 -8 -5 -12 -12z"/>
<path d="M1680 770 c0 -7 3 -10 7 -7 3 4 3 10 0 14 -4 3 -7 0 -7 -7z"/>
<path d="M1943 763 c4 -3 10 -3 14 0 3 4 0 7 -7 7 -7 0 -10 -3 -7 -7z"/>
<path d="M1203 713 c4 -3 10 -3 14 0 3 4 0 7 -7 7 -7 0 -10 -3 -7 -7z"/>
<path d="M1983 713 c4 -3 10 -3 14 0 3 4 0 7 -7 7 -7 0 -10 -3 -7 -7z"/>
<path d="M1230 700 c0 -7 3 -10 7 -7 3 4 3 10 0 14 -4 3 -7 0 -7 -7z"/>
<path d="M1380 660 c0 -7 3 -10 7 -7 3 4 3 10 0 14 -4 3 -7 0 -7 -7z"/>
<path d="M1608 603 c7 -3 16 -2 19 1 4 3 -2 6 -13 5 -11 0 -14 -3 -6 -6z"/>
<path d="M1420 596 c0 -2 8 -10 18 -17 15 -13 16 -12 3 4 -13 16 -21 21 -21 13z"/>
<path d="M1568 523 c6 -2 18 -2 25 0 6 3 1 5 -13 5 -14 0 -19 -2 -12 -5z"/>
</g>
<g id="layer106" fill="#ffffff" stroke="none">
<path d="M1590 2000 c0 -7 3 -10 7 -7 3 4 3 10 0 14 -4 3 -7 0 -7 -7z"/>
<path d="M1743 1923 c4 -3 10 -3 14 0 3 4 0 7 -7 7 -7 0 -10 -3 -7 -7z"/>
<path d="M860 1890 c0 -7 3 -10 7 -7 3 4 3 10 0 14 -4 3 -7 0 -7 -7z"/>
<path d="M830 1880 c0 -7 3 -10 7 -7 3 4 3 10 0 14 -4 3 -7 0 -7 -7z"/>
<path d="M1084 1838 c-4 -7 -3 -8 4 -4 12 7 16 16 8 16 -3 0 -8 -5 -12 -12z"/>
<path d="M1054 1818 c-4 -7 -3 -8 4 -4 12 7 16 16 8 16 -3 0 -8 -5 -12 -12z"/>
<path d="M1170 1805 c13 -14 26 -25 28 -25 3 0 -5 11 -18 25 -13 14 -26 25 -28 25 -3 0 5 -11 18 -25z"/>
<path d="M455 1800 c3 -5 8 -10 11 -10 3 0 2 5 -1 10 -3 6 -8 10 -11 10 -3 0 -2 -4 1 -10z"/>
<path d="M1460 1770 c0 -7 3 -10 7 -7 3 4 3 10 0 14 -4 3 -7 0 -7 -7z"/>
<path d="M1755 1750 c3 -5 8 -10 11 -10 3 0 2 5 -1 10 -3 6 -8 10 -11 10 -3 0 -2 -4 1 -10z"/>
<path d="M325 1740 c3 -5 8 -10 11 -10 3 0 2 5 -1 10 -3 6 -8 10 -11 10 -3 0 -2 -4 1 -10z"/>
<path d="M1928 1723 c7 -3 16 -2 19 1 4 3 -2 6 -13 5 -11 0 -14 -3 -6 -6z"/>
<path d="M345 1710 c3 -5 8 -10 11 -10 3 0 2 5 -1 10 -3 6 -8 10 -11 10 -3 0 -2 -4 1 -10z"/>
<path d="M703 1713 c4 -3 10 -3 14 0 3 4 0 7 -7 7 -7 0 -10 -3 -7 -7z"/>
<path d="M365 1680 c3 -5 8 -10 11 -10 3 0 2 5 -1 10 -3 6 -8 10 -11 10 -3 0 -2 -4 1 -10z"/>
<path d="M594 1628 c-4 -7 -3 -8 4 -4 12 7 16 16 8 16 -3 0 -8 -5 -12 -12z"/>
<path d="M985 1590 c3 -5 8 -10 11 -10 3 0 2 5 -1 10 -3 6 -8 10 -11 10 -3 0 -2 -4 1 -10z"/>
<path d="M1950 1570 c0 -7 3 -10 7 -7 3 4 3 10 0 14 -4 3 -7 0 -7 -7z"/>
<path d="M524 1548 c-4 -7 -3 -8 4 -4 12 7 16 16 8 16 -3 0 -8 -5 -12 -12z"/>
<path d="M768 1513 c7 -3 16 -2 19 1 4 3 -2 6 -13 5 -11 0 -14 -3 -6 -6z"/>
<path d="M1470 1470 c0 -7 3 -10 7 -7 3 4 3 10 0 14 -4 3 -7 0 -7 -7z"/>
<path d="M870 1440 c0 -7 3 -10 7 -7 3 4 3 10 0 14 -4 3 -7 0 -7 -7z"/>
<path d="M660 1410 c0 -7 3 -10 7 -7 3 4 3 10 0 14 -4 3 -7 0 -7 -7z"/>
<path d="M1603 1383 c4 -3 10 -3 14 0 3 4 0 7 -7 7 -7 0 -10 -3 -7 -7z"/>
<path d="M1780 1360 c0 -7 3 -10 7 -7 3 4 3 10 0 14 -4 3 -7 0 -7 -7z"/>
<path d="M360 1300 c0 -7 3 -10 7 -7 3 4 3 10 0 14 -4 3 -7 0 -7 -7z"/>
<path d="M844 1288 c-4 -7 -3 -8 4 -4 7 4 12 9 12 12 0 8 -9 4 -16 -8z"/>
<path d="M1034 1238 c-4 -7 -3 -8 4 -4 12 7 16 16 8 16 -3 0 -8 -5 -12 -12z"/>
<path d="M1628 1223 c7 -3 16 -2 19 1 4 3 -2 6 -13 5 -11 0 -14 -3 -6 -6z"/>
<path d="M565 1210 c3 -5 8 -10 11 -10 3 0 2 5 -1 10 -3 6 -8 10 -11 10 -3 0 -2 -4 1 -10z"/>
<path d="M989 1183 c-13 -16 -12 -17 4 -4 9 7 17 15 17 17 0 8 -8 3 -21 -13z"/>
<path d="M615 1170 c3 -5 8 -10 11 -10 3 0 2 5 -1 10 -3 6 -8 10 -11 10 -3 0 -2 -4 1 -10z"/>
<path d="M416 1153 c-6 -14 -5 -15 5 -6 7 7 10 15 7 18 -3 3 -9 -2 -12 -12z"/>
<path d="M873 1143 c4 -3 10 -3 14 0 3 4 0 7 -7 7 -7 0 -10 -3 -7 -7z"/>
<path d="M1294 1138 c-4 -7 -3 -8 4 -4 12 7 16 16 8 16 -3 0 -8 -5 -12 -12z"/>
<path d="M1175 1130 c3 -5 8 -10 11 -10 3 0 2 5 -1 10 -3 6 -8 10 -11 10 -3 0 -2 -4 1 -10z"/>
<path d="M883 1113 c4 -3 10 -3 14 0 3 4 0 7 -7 7 -7 0 -10 -3 -7 -7z"/>
<path d="M853 1103 c4 -3 10 -3 14 0 3 4 0 7 -7 7 -7 0 -10 -3 -7 -7z"/>
<path d="M743 1093 c4 -3 10 -3 14 0 3 4 0 7 -7 7 -7 0 -10 -3 -7 -7z"/>
<path d="M793 1093 c4 -3 10 -3 14 0 3 4 0 7 -7 7 -7 0 -10 -3 -7 -7z"/>
<path d="M1215 1070 c3 -5 8 -10 11 -10 3 0 2 5 -1 10 -3 6 -8 10 -11 10 -3 0 -2 -4 1 -10z"/>
<path d="M1785 1020 c3 -5 8 -10 11 -10 3 0 2 5 -1 10 -3 6 -8 10 -11 10 -3 0 -2 -4 1 -10z"/>
<path d="M1513 973 c4 -3 10 -3 14 0 3 4 0 7 -7 7 -7 0 -10 -3 -7 -7z"/>
<path d="M873 963 c4 -3 10 -3 14 0 3 4 0 7 -7 7 -7 0 -10 -3 -7 -7z"/>
<path d="M1523 943 c4 -3 10 -3 14 0 3 4 0 7 -7 7 -7 0 -10 -3 -7 -7z"/>
<path d="M1414 918 l-19 -23 23 19 c21 18 27 26 19 26 -2 0 -12 -10 -23 -22z"/>
<path d="M1964 898 c-4 -7 -3 -8 4 -4 12 7 16 16 8 16 -3 0 -8 -5 -12 -12z"/>
<path d="M1904 878 c-4 -7 -3 -8 4 -4 12 7 16 16 8 16 -3 0 -8 -5 -12 -12z"/>
<path d="M1598 873 c7 -3 16 -2 19 1 4 3 -2 6 -13 5 -11 0 -14 -3 -6 -6z"/>
<path d="M690 860 c0 -7 3 -10 7 -7 3 4 3 10 0 14 -4 3 -7 0 -7 -7z"/>
<path d="M1710 780 c0 -7 3 -10 7 -7 3 4 3 10 0 14 -4 3 -7 0 -7 -7z"/>
<path d="M1822 740 c0 -14 2 -19 5 -12 2 6 2 18 0 25 -3 6 -5 1 -5 -13z"/>
<path d="M1213 743 c4 -3 10 -3 14 0 3 4 0 7 -7 7 -7 0 -10 -3 -7 -7z"/>
<path d="M1440 740 c0 -7 3 -10 7 -7 3 4 3 10 0 14 -4 3 -7 0 -7 -7z"/>
<path d="M1680 710 c0 -7 3 -10 7 -7 3 4 3 10 0 14 -4 3 -7 0 -7 -7z"/>
<path d="M1710 700 c0 -7 3 -10 7 -7 3 4 3 10 0 14 -4 3 -7 0 -7 -7z"/>
<path d="M1270 660 c0 -7 3 -10 7 -7 3 4 3 10 0 14 -4 3 -7 0 -7 -7z"/>
<path d="M1240 650 c0 -7 3 -10 7 -7 3 4 3 10 0 14 -4 3 -7 0 -7 -7z"/>
<path d="M1543 603 c4 -3 10 -3 14 0 3 4 0 7 -7 7 -7 0 -10 -3 -7 -7z"/>
<path d="M1425 590 c3 -5 8 -10 11 -10 3 0 2 5 -1 10 -3 6 -8 10 -11 10 -3 0 -2 -4 1 -10z"/>
<path d="M1578 523 c7 -3 16 -2 19 1 4 3 -2 6 -13 5 -11 0 -14 -3 -6 -6z"/>
<path d="M1540 300 c0 -7 3 -10 7 -7 3 4 3 10 0 14 -4 3 -7 0 -7 -7z"/>
</g>
<g id="layer107" fill="#ffffff" stroke="none">
<path d="M720 1940 c0 -7 3 -10 7 -7 3 4 3 10 0 14 -4 3 -7 0 -7 -7z"/>
<path d="M820 1930 c0 -7 3 -10 7 -7 3 4 3 10 0 14 -4 3 -7 0 -7 -7z"/>
<path d="M643 1843 c4 -3 10 -3 14 0 3 4 0 7 -7 7 -7 0 -10 -3 -7 -7z"/>
<path d="M1020 1800 c-9 -6 -10 -10 -3 -10 6 0 15 5 18 10 8 12 4 12 -15 0z"/>
<path d="M833 1713 c4 -3 10 -3 14 0 3 4 0 7 -7 7 -7 0 -10 -3 -7 -7z"/>
<path d="M1770 1670 c0 -7 3 -10 7 -7 3 4 3 10 0 14 -4 3 -7 0 -7 -7z"/>
<path d="M1025 1590 c3 -5 8 -10 11 -10 3 0 2 5 -1 10 -3 6 -8 10 -11 10 -3 0 -2 -4 1 -10z"/>
<path d="M1170 1540 c0 -7 3 -10 7 -7 3 4 3 10 0 14 -4 3 -7 0 -7 -7z"/>
<path d="M1505 1480 c3 -5 8 -10 11 -10 3 0 2 5 -1 10 -3 6 -8 10 -11 10 -3 0 -2 -4 1 -10z"/>
<path d="M900 1360 c0 -7 3 -10 7 -7 3 4 3 10 0 14 -4 3 -7 0 -7 -7z"/>
<path d="M884 1328 c-4 -7 -3 -8 4 -4 7 4 12 9 12 12 0 8 -9 4 -16 -8z"/>
<path d="M414 1148 c-4 -7 -3 -8 4 -4 12 7 16 16 8 16 -3 0 -8 -5 -12 -12z"/>
<path d="M843 1133 c4 -3 10 -3 14 0 3 4 0 7 -7 7 -7 0 -10 -3 -7 -7z"/>
<path d="M1105 1000 c3 -5 8 -10 11 -10 3 0 2 5 -1 10 -3 6 -8 10 -11 10 -3 0 -2 -4 1 -10z"/>
<path d="M863 993 c4 -3 10 -3 14 0 3 4 0 7 -7 7 -7 0 -10 -3 -7 -7z"/>
<path d="M1424 928 c-4 -7 -3 -8 4 -4 12 7 16 16 8 16 -3 0 -8 -5 -12 -12z"/>
<path d="M680 910 c0 -7 3 -10 7 -7 3 4 3 10 0 14 -4 3 -7 0 -7 -7z"/>
<path d="M1603 873 c4 -3 10 -3 14 0 3 4 0 7 -7 7 -7 0 -10 -3 -7 -7z"/>
<path d="M1130 840 c0 -7 3 -10 7 -7 3 4 3 10 0 14 -4 3 -7 0 -7 -7z"/>
<path d="M1464 818 c-4 -7 -3 -8 4 -4 7 4 12 9 12 12 0 8 -9 4 -16 -8z"/>
<path d="M1920 810 c0 -7 3 -10 7 -7 3 4 3 10 0 14 -4 3 -7 0 -7 -7z"/>
<path d="M1780 800 c0 -7 3 -10 7 -7 3 4 3 10 0 14 -4 3 -7 0 -7 -7z"/>
<path d="M1340 680 c0 -7 3 -10 7 -7 3 4 3 10 0 14 -4 3 -7 0 -7 -7z"/>
<path d="M2060 650 c0 -7 3 -10 7 -7 3 4 3 10 0 14 -4 3 -7 0 -7 -7z"/>
<path d="M1613 603 c4 -3 10 -3 14 0 3 4 0 7 -7 7 -7 0 -10 -3 -7 -7z"/>
<path d="M1884 568 c-4 -7 -3 -8 4 -4 12 7 16 16 8 16 -3 0 -8 -5 -12 -12z"/>
<path d="M1435 540 c3 -5 8 -10 11 -10 3 0 2 5 -1 10 -3 6 -8 10 -11 10 -3 0 -2 -4 1 -10z"/>
<path d="M1824 538 c-4 -7 -3 -8 4 -4 7 4 12 9 12 12 0 8 -9 4 -16 -8z"/>
<path d="M1864 538 c-4 -7 -3 -8 4 -4 12 7 16 16 8 16 -3 0 -8 -5 -12 -12z"/>
<path d="M1633 533 c4 -3 10 -3 14 0 3 4 0 7 -7 7 -7 0 -10 -3 -7 -7z"/>
<path d="M1685 400 c3 -5 8 -10 11 -10 3 0 2 5 -1 10 -3 6 -8 10 -11 10 -3 0 -2 -4 1 -10z"/>
<path d="M1834 318 c-4 -7 -3 -8 4 -4 12 7 16 16 8 16 -3 0 -8 -5 -12 -12z"/>
<path d="M1493 253 c4 -3 10 -3 14 0 3 4 0 7 -7 7 -7 0 -10 -3 -7 -7z"/>
</g>


</svg>