<!DOCTYPE svg PUBLIC "-//W3C//DTD SVG 20010904//EN" "http://www.w3.org/TR/2001/REC-SVG-20010904/DTD/svg10.dtd">
<svg version="1.0" xmlns="http://www.w3.org/2000/svg" width="43px" height="33px" viewBox="0 0 430 330" preserveAspectRatio="xMidYMid meet">
<g id="layer101" fill="#ffffff" stroke="none">
 <path d="M0 165 l0 -165 58 1 57 1 -31 13 c-75 33 -96 109 -45 164 25 27 27 33 15 48 -7 10 -14 21 -14 26 0 12 43 7 70 -8 14 -8 45 -14 68 -15 83 0 152 -53 152 -115 0 -39 -32 -82 -74 -101 -29 -12 -23 -13 72 -14 l102 0 0 165 0 165 -215 0 -215 0 0 -165z m390 148 c0 -3 -7 -15 -16 -24 -15 -17 -14 -21 15 -54 37 -42 39 -70 9 -115 -34 -49 -48 -49 -48 -1 0 71 -86 139 -179 142 l-26 1 30 13 c17 8 50 15 75 15 25 0 59 7 75 15 33 15 65 19 65 8z"/>
 </g>

</svg>