<!DOCTYPE svg PUBLIC "-//W3C//DTD SVG 20010904//EN" "http://www.w3.org/TR/2001/REC-SVG-20010904/DTD/svg10.dtd">
<svg version="1.0" xmlns="http://www.w3.org/2000/svg" width="46px" height="36px" viewBox="0 0 460 360" preserveAspectRatio="xMidYMid meet">
<g id="layer101" fill="#ffffff" stroke="none">
 <path d="M0 180 l0 -180 230 0 230 0 0 180 0 180 -230 0 -230 0 0 -180z m414 138 c9 -12 16 -26 16 -30 0 -5 -92 -8 -205 -8 -113 0 -205 3 -205 8 0 4 7 18 16 30 15 21 21 22 189 22 168 0 174 -1 189 -22z m-86 -80 c7 -7 12 -20 12 -30 0 -13 8 -18 25 -18 67 0 100 -96 50 -145 -24 -24 -28 -25 -180 -25 l-155 0 0 103 c0 67 4 107 12 115 16 16 220 16 236 0z"/>
 <path d="M340 105 c0 -46 13 -58 38 -33 25 25 8 78 -25 78 -9 0 -13 -15 -13 -45z"/>
 </g>

</svg>