<!DOCTYPE svg PUBLIC "-//W3C//DTD SVG 20010904//EN" "http://www.w3.org/TR/2001/REC-SVG-20010904/DTD/svg10.dtd">
<svg version="1.0" xmlns="http://www.w3.org/2000/svg" width="41px" height="32px" viewBox="0 0 410 320" preserveAspectRatio="xMidYMid meet">
<g id="layer101" fill="#ffffff" stroke="none">
 <path d="M0 160 l0 -160 205 0 205 0 0 160 0 160 -67 0 c-66 0 -67 0 -43 -17 14 -9 29 -23 33 -30 4 -7 16 -13 26 -13 24 0 31 -19 31 -83 0 -66 -32 -117 -93 -146 -114 -55 -254 5 -282 120 -10 42 12 109 36 109 11 0 22 7 25 15 4 9 18 22 33 30 25 14 23 14 -41 15 l-68 0 0 -160z"/>
 <path d="M170 250 c0 -79 -9 -86 -67 -50 l-33 20 0 -41 c0 -53 28 -92 80 -113 52 -21 65 -20 117 5 49 24 73 61 73 113 l0 35 -42 -24 c-23 -13 -45 -22 -50 -19 -4 3 -8 36 -8 75 l0 69 -35 0 -35 0 0 -70z"/>
 </g>

</svg>