<!DOCTYPE svg PUBLIC "-//W3C//DTD SVG 20010904//EN" "http://www.w3.org/TR/2001/REC-SVG-20010904/DTD/svg10.dtd">
<svg version="1.0" xmlns="http://www.w3.org/2000/svg" width="37px" height="38px" viewBox="0 0 370 380" preserveAspectRatio="xMidYMid meet">
<g id="layer101" fill="#ffffff" stroke="none">
 <path d="M0 198 l0 -182 75 74 75 74 0 88 0 88 -40 0 c-29 0 -40 4 -40 15 0 12 19 15 115 15 96 0 115 -3 115 -15 0 -11 -12 -15 -45 -15 l-45 0 0 -81 0 -81 74 -77 c40 -42 76 -83 79 -91 3 -8 6 72 6 178 l1 192 -185 0 -185 0 0 -182z"/>
 </g>

</svg>