<?xml version="1.0" encoding="UTF-8" standalone="no"?>
<!-- Created with Inkscape (http://www.inkscape.org/) -->

<svg
   xmlns:dc="http://purl.org/dc/elements/1.1/"
   xmlns:cc="http://creativecommons.org/ns#"
   xmlns:rdf="http://www.w3.org/1999/02/22-rdf-syntax-ns#"
   xmlns:svg="http://www.w3.org/2000/svg"
   xmlns="http://www.w3.org/2000/svg"
   xmlns:sodipodi="http://sodipodi.sourceforge.net/DTD/sodipodi-0.dtd"
   xmlns:inkscape="http://www.inkscape.org/namespaces/inkscape"
   version="1.1"
   id="svg10"
   width="34"
   height="33"
   viewBox="0 0 34 33"
   sodipodi:docname="interestes1.svg"
   inkscape:version="0.92.4 (5da689c313, 2019-01-14)">
  <metadata
     id="metadata16">
    <rdf:RDF>
      <cc:Work
         rdf:about="">
        <dc:format>image/svg+xml</dc:format>
        <dc:type
           rdf:resource="http://purl.org/dc/dcmitype/StillImage" />
        <dc:title></dc:title>
      </cc:Work>
    </rdf:RDF>
  </metadata>
  <defs
     id="defs14" />
  <sodipodi:namedview
     pagecolor="#ffffff"
     bordercolor="#666666"
     borderopacity="1"
     objecttolerance="10"
     gridtolerance="10"
     guidetolerance="10"
     inkscape:pageopacity="0"
     inkscape:pageshadow="2"
     inkscape:window-width="1366"
     inkscape:window-height="705"
     id="namedview12"
     showgrid="false"
     inkscape:zoom="16.30303"
     inkscape:cx="17"
     inkscape:cy="16.5"
     inkscape:window-x="-8"
     inkscape:window-y="-8"
     inkscape:window-maximized="1"
     inkscape:current-layer="svg10" />
  <path
     style="fill:#717171;stroke-width:0.56151354"
     d="M 10.207407,21.243369 C 9.4097007,20.380699 7.8867807,19.246458 6.8231387,18.722834 5.3252279,17.985423 5.0525713,17.624801 5.6137137,17.123222 6.0121726,16.767058 7.1501167,16.538832 8.1424801,16.616051 9.7719067,16.742843 13.28763,15.046 13.28763,14.132777 c 0,-0.162459 -1.612434,-0.940649 -3.5831873,-1.729308 C 7.73369,11.61481 6.2109434,10.767458 6.3205606,10.520465 6.880662,9.2584432 8.7509201,9.0946192 13.317216,9.9076012 l 4.670358,0.8315088 2.236291,-1.4565808 c 2.08981,-1.361171 4.076603,-1.83103 4.96276,-1.17365 0.645916,0.47916 -0.805919,2.9268338 -2.391478,4.0318328 l -1.503609,1.047887 1.165708,3.719992 c 0.824858,2.632284 0.965734,3.898738 0.481797,4.331307 -1.234801,1.10373 -2.128209,0.645783 -4.042694,-2.072227 l -1.888587,-2.681243 -1.906938,1.352409 c -1.447602,1.026647 -1.825638,1.655784 -1.569411,2.611864 0.298437,1.113581 -0.509028,2.373737 -1.515067,2.364466 -0.197212,-0.0019 -1.011235,-0.709126 -1.808939,-1.571798 z"
     id="path20"
     inkscape:connector-curvature="0" />
</svg>
