<!DOCTYPE svg PUBLIC "-//W3C//DTD SVG 20010904//EN" "http://www.w3.org/TR/2001/REC-SVG-20010904/DTD/svg10.dtd">
<svg version="1.0" xmlns="http://www.w3.org/2000/svg" width="43px" height="37px" viewBox="0 0 430 370" preserveAspectRatio="xMidYMid meet">
<g id="layer101" fill="#ffffff" stroke="none">
 <path d="M0 185 l0 -185 215 0 215 0 0 185 c0 102 -3 185 -7 185 -5 0 -8 -78 -8 -172 l0 -173 -195 0 -195 0 0 173 c0 131 -3 172 -12 172 -10 0 -13 -44 -13 -185z"/>
 <path d="M50 325 c0 -13 26 -15 170 -15 144 0 170 2 170 15 0 13 -26 15 -170 15 -144 0 -170 -2 -170 -15z"/>
 <path d="M164 276 c-58 -49 -20 -146 57 -146 70 0 106 94 54 145 -31 32 -75 32 -111 1z m96 -26 c25 -25 25 -45 0 -70 -24 -24 -57 -26 -82 -3 -22 20 -23 42 -2 71 19 28 57 29 84 2z"/>
 <path d="M180 212 c0 -10 22 -32 32 -32 5 0 3 9 -4 20 -13 20 -28 27 -28 12z"/>
 <path d="M50 100 c0 -18 7 -20 70 -20 54 0 72 -4 76 -15 5 -12 26 -15 100 -15 l94 0 0 35 0 35 -170 0 c-163 0 -170 -1 -170 -20z"/>
 <path d="M80 50 c0 -17 7 -20 40 -20 33 0 40 3 40 20 0 17 -7 20 -40 20 -33 0 -40 -3 -40 -20z"/>
 </g>

</svg>